<?xml version="1.0" standalone="no"?><!DOCTYPE svg PUBLIC "-//W3C//DTD SVG 1.1//EN" "http://www.w3.org/Graphics/SVG/1.1/DTD/svg11.dtd"><svg t="1722054488130" class="icon" viewBox="0 0 1024 1024" version="1.1" xmlns="http://www.w3.org/2000/svg" p-id="1439" xmlns:xlink="http://www.w3.org/1999/xlink" width="32" height="32"><path d="M861.7472 240.256h-134.912c-19.8144-0.64-35.1744-17.8944-34.5344-37.7088a36.1472 36.1472 0 0 1 34.5344-34.5344h134.912V77.2352c0-19.84 11.52-24.9344 25.5744-10.88l112.512 113.152c14.08 14.08 14.08 37.12 0 50.5344l-113.152 113.152c-14.08 14.08-25.6 9.6-25.6-10.8544V240.256h0.6656z m-301.7984 200.1408h79.9232c19.8144 0.64 35.1744 17.8944 34.5344 37.7088a36.1472 36.1472 0 0 1-34.5344 34.5344H547.84v63.9488h92.0576c19.8144 0.64 35.1744 17.8944 34.5344 37.7088a36.1472 36.1472 0 0 1-34.5344 34.5344H547.84v137.472c-0.64 19.8144-17.92 35.1488-37.7344 34.5088a36.1472 36.1472 0 0 1-34.5344-34.5088v-137.472h-91.4176c-19.8144-0.64-35.1744-17.92-34.5344-37.7344a36.1472 36.1472 0 0 1 34.5344-34.5088h91.4176v-63.9488h-91.4176c-19.8144-0.64-35.1744-17.92-34.5344-37.7344a36.1472 36.1472 0 0 1 34.5344-34.5088h79.2832l-95.2832-99.0976c-14.0544-14.08-13.4144-37.12 0.64-51.1744 14.08-14.0544 37.0944-13.4144 51.1744 0.64L512 386.048l91.4432-95.2832a36.2752 36.2752 0 0 1 51.1488-0.64c14.0544 14.08 14.6944 36.4544 0.64 51.1744l-95.2832 99.072z m458.4448 0c39.6288 279.3984-154.7264 538.368-434.7904 577.9968C303.5648 1058.0224 45.2352 862.976 5.632 583.6032-34.0224 304.2048 161.024 45.2352 440.3968 5.632c53.7088-7.68 108.032-6.4 161.1264 2.56 19.1744 5.12 30.6688 24.32 26.2144 43.4944-5.12 19.1744-24.32 30.6688-43.4944 26.2144-239.7696-39.6544-466.0992 122.112-505.728 361.8816-39.6544 239.7696 122.112 466.0992 361.8816 505.728 239.7696 39.6544 466.0992-122.112 505.728-361.8816 7.68-45.3888 7.68-91.4176 1.28-136.832a35.8656 35.8656 0 0 1 32.6144-38.9888c19.2-1.92 36.4544 12.8 38.3744 32.6144z" fill="#e5616e" p-id="1440"></path></svg>