<?xml version="1.0" standalone="no"?><!DOCTYPE svg PUBLIC "-//W3C//DTD SVG 1.1//EN" "http://www.w3.org/Graphics/SVG/1.1/DTD/svg11.dtd"><svg t="1700760909956" class="icon" viewBox="0 0 1024 1024" version="1.1" xmlns="http://www.w3.org/2000/svg" p-id="19035" xmlns:xlink="http://www.w3.org/1999/xlink" width="32" height="32"><path d="M512 184.32c-18.773333 0-34.133333-15.36-34.133333-34.133333V68.266667c0-18.773333 15.36-34.133333 34.133333-34.133334s34.133333 15.36 34.133333 34.133334v83.626666c0 17.066667-15.36 32.426667-34.133333 32.426667zM267.946667 271.36c-8.533333 0-17.066667-3.413333-23.893334-10.24l-58.026666-58.026667c-13.653333-13.653333-13.653333-34.133333 0-47.786666 13.653333-13.653333 34.133333-13.653333 47.786666 0l58.026667 58.026666c13.653333 13.653333 13.653333 34.133333 0 47.786667-5.12 6.826667-13.653333 10.24-23.893333 10.24zM756.053333 271.36c-8.533333 0-17.066667-3.413333-23.893333-10.24-13.653333-13.653333-13.653333-34.133333 0-47.786667l58.026667-58.026666c13.653333-13.653333 34.133333-13.653333 47.786666 0 13.653333 13.653333 13.653333 34.133333 0 47.786666l-58.026666 58.026667c-6.826667 6.826667-15.36 10.24-23.893334 10.24z" fill="#333333" p-id="19036"></path><path d="M918.186667 923.306667h-104.106667V554.666667c0-165.546667-134.826667-300.373333-300.373333-300.373334s-300.373333 134.826667-300.373334 300.373334v368.64H105.813333c-18.773333 0-34.133333 15.36-34.133333 34.133333s15.36 34.133333 34.133333 34.133333h812.373334c18.773333 0 34.133333-15.36 34.133333-34.133333s-17.066667-34.133333-34.133333-34.133333zM407.893333 605.866667l102.4-122.88c11.946667-13.653333 32.426667-17.066667 47.786667-5.12 13.653333 11.946667 17.066667 32.426667 5.12 47.786666l-56.32 68.266667h85.333333c11.946667 0 23.893333 6.826667 29.013334 18.773333 5.12 11.946667 5.12 23.893333-1.706667 34.133334l-80.213333 114.346666c-6.826667 8.533333-17.066667 13.653333-27.306667 13.653334-6.826667 0-13.653333-1.706667-18.773333-6.826667-15.36-10.24-18.773333-30.72-8.533334-46.08l42.666667-61.44h-92.16c-13.653333 0-25.6-6.826667-30.72-18.773333-6.826667-11.946667-5.12-27.306667 3.413333-35.84z" fill="#333333" p-id="19037"></path></svg>