<?xml version="1.0" standalone="no"?><!DOCTYPE svg PUBLIC "-//W3C//DTD SVG 1.1//EN" "http://www.w3.org/Graphics/SVG/1.1/DTD/svg11.dtd"><svg t="1724561078700" class="icon" viewBox="0 0 1024 1024" version="1.1" xmlns="http://www.w3.org/2000/svg" p-id="1651" xmlns:xlink="http://www.w3.org/1999/xlink" width="32" height="32"><path d="M738.747769 441.135022c-8.456602 0.221034-26.307156 1.109264-30.575366 1.840928-3.475148 0.691755-7.445576 1.502213-12.041244 2.436492-12.94994 2.641153-29.145807 5.944386-47.160089 9.29162-9.830903 1.826602-20.204158 3.667529-30.887474 5.423523-37.064151 6.094812-77.860299 11.161201-112.724341 11.040451-30.375821-0.103354-66.190515-4.27435-99.718119-9.601682-10.712993-1.701758-21.187555-3.521197-31.182186-5.366218-32.831756-6.054903-60.424184-12.363585-73.833589-15.557324-2.111081-0.349971-8.336876-0.849344-12.899798-1.084705-0.076748-0.00307-0.160659-0.00307-0.246617-0.00307-0.518816 0-1.115404 0-1.609661 0.00307-0.460488 0-0.852414 0-1.099031 0-14.228049-0.050142-24.76708 3.611248-31.324426 10.875698-7.90197 8.749268-9.598612 21.629623-9.630335 30.892591-0.028653 8.40646 2.408863 16.553001 7.048533 23.557532 0.01842 0.028653 0.032746 0.053212 0.050142 0.078795l91.728144 139.446959c1.218758 1.455141 2.308579 3.043313 3.241834 4.755304 7.466042 13.706163 21.801539 22.269189 37.412075 22.343891 0.178055 0 0.35918 0.00307 0.535189 0.007163l256.06498 0.892323c0.593518-0.085958 1.193175-0.149403 1.797949-0.196475 14.323217-1.102101 27.057239-9.301853 34.073026-21.933545 1.027399-1.852184 2.233877-3.553942 3.588735-5.091972l92.417853-138.354068c0.01842-0.028653 0.035816-0.057305 0.056282-0.084934 4.689812-6.968715 7.185656-15.093766 7.214309-23.493064 0.030699-9.181103-1.608637-22.005176-9.601682-30.9325C762.897795 445.010283 752.574682 441.249633 738.747769 441.135022z" fill="#1890ff" p-id="1652"></path><path d="M619.906104 430.43124c-3.085268-16.438391-12.903891-31.898501-28.421306-44.416606-10.036587-8.096399-21.843494-14.504342-35.096333-19.046798-14.039761-4.809539-29.020964-7.278777-44.531216-7.333012-15.510252-0.053212-30.510898 2.308579-44.583404 7.021927-13.281491 4.449335-25.133424 10.775414-35.226293 18.800181-16.268522 12.941753-26.363438 29.123294-29.099758 46.328142 34.264385 5.677303 71.544453 10.301623 102.511745 10.408047C540.267299 442.315918 582.388629 436.781878 619.906104 430.43124z" fill="#1890ff" p-id="1653"></path><path d="M511.432577 63.894216c-246.680239 0-446.652689 199.972451-446.652689 446.651666 0 246.676146 199.972451 446.651666 446.652689 446.651666 246.680239 0 446.651666-199.975521 446.651666-446.651666C958.085266 263.866666 758.112816 63.894216 511.432577 63.894216zM795.867698 522.927887l-94.506421 141.480268-0.264013-0.064468c-11.382235 20.502963-32.512485 34.856879-57.176211 36.759205l0 0.292666-260.767072-0.906649 0-0.004093c-27.105335-0.135076-50.620911-15.256472-62.71332-37.4571l-0.201591 0.046049L226.706837 520.886391c-7.532557-11.375072-11.916401-25.00551-11.866259-39.659255 0.137123-39.538505 22.107507-70.809719 70.032006-70.64599 0.497327 0.00307 1.723248-0.00307 2.706645 0 0.490164 0 0.921999 0.007163 1.170662 0.014326 0 0 13.649881 0.681522 18.272155 1.783623 11.780301 2.807952 36.9741 8.602935 67.385736 14.340613 8.94165-54.42454 67.182099-96.303346 137.549749-96.060823 69.347414 0.242524 126.633119 41.311895 136.477324 94.6548 22.539342-4.242627 41.71917-8.29185 54.143131-10.768251 7.713682-1.538029 35.509748-2.390443 35.898605-2.387373 47.288003 0.164752 69.678966 31.671327 69.542866 71.195505C807.969317 498.011404 803.485189 511.606027 795.867698 522.927887z" fill="#1890ff" p-id="1654"></path></svg>