<svg xmlns="http://www.w3.org/2000/svg" xmlns:xlink="http://www.w3.org/1999/xlink" fill="none" version="1.1" width="20" height="20" viewBox="0 0 20 20"><g style="mix-blend-mode:passthrough"><g style="mix-blend-mode:passthrough"><path d="M17,4.4000244712829595C17,4.090746471282959,16.749299999999998,3.840024471282959,16.439999999999998,3.840024471282959L3.56,3.840024471282959C3.250722,3.840024471282959,3,4.090746471282959,3,4.4000244712829595C3,4.7093024712829585,3.250722,4.960024471282959,3.56,4.960024471282959L16.439999999999998,4.960024471282959C16.749299999999998,4.960024471282959,17,4.7093024712829585,17,4.4000244712829595ZM11.12,7.567504471282959C11.42928,7.567504471282959,11.68,7.818224471282959,11.68,8.12750447128296C11.68,8.436784471282959,11.42928,8.68750447128296,11.12,8.68750447128296L3.56,8.68750447128296C3.250722,8.68750447128296,3,8.436784471282959,3,8.12750447128296C3,7.818224471282959,3.250722,7.567504471282959,3.56,7.567504471282959L11.12,7.567504471282959ZM16.9836,7.845284471282959C16.9836,7.715814471282959,16.834699999999998,7.644034471282959,16.7315,7.72453447128296L13.9965,9.878644471282959C13.9178,9.939874471282959,13.9178,10.058824471282959,13.9965,10.120074471282958L16.7315,12.274074471282958C16.833,12.35455447128296,16.9836,12.282894471282958,16.9836,12.15339447128296L16.9836,7.845284471282959ZM11.12,11.31268447128296C11.42928,11.31268447128296,11.68,11.563404471282958,11.68,11.872684471282959C11.68,12.181954471282959,11.42928,12.43268447128296,11.12,12.43268447128296L3.56,12.43268447128296C3.250722,12.43268447128296,3,12.181954471282959,3,11.872684471282959C3,11.563404471282958,3.250722,11.31268447128296,3.56,11.31268447128296L11.12,11.31268447128296ZM16.439999999999998,15.04022447128296C16.749299999999998,15.04022447128296,17,15.29092447128296,17,15.600224471282958C17,15.909524471282959,16.749299999999998,16.16022447128296,16.439999999999998,16.16022447128296L3.56,16.16022447128296C3.250722,16.16022447128296,3,15.909524471282959,3,15.600224471282958C3,15.29092447128296,3.250722,15.04022447128296,3.56,15.04022447128296L16.439999999999998,15.04022447128296Z" fill-rule="evenodd" fill="#1890ff" fill-opacity="1"/></g></g></svg>