<?xml version="1.0" standalone="no"?><!DOCTYPE svg PUBLIC "-//W3C//DTD SVG 1.1//EN" "http://www.w3.org/Graphics/SVG/1.1/DTD/svg11.dtd"><svg t="1700760848256" class="icon" viewBox="0 0 1024 1024" version="1.1" xmlns="http://www.w3.org/2000/svg" p-id="16878" xmlns:xlink="http://www.w3.org/1999/xlink" width="32" height="32"><path d="M503 560.488c90.148 0 163.227 73.092 163.227 163.256S593.147 887 503 887c-90.148 0-163.227-73.092-163.227-163.256S412.853 560.488 503 560.488z m0 36.79c-69.833 0-126.443 56.62-126.443 126.466 0 69.845 56.61 126.466 126.443 126.466s126.443-56.62 126.443-126.466c0-69.845-56.61-126.466-126.443-126.466z m-16.992 18.395c9.523 0 17.243 7.72 17.243 17.242l-0.001 89.77 67.71 56.826c7.295 6.123 8.246 17 2.125 24.296-6.12 7.295-16.995 8.247-24.29 2.127l-0.002-0.002-73.966-62.076c-4.573-3.838-6.654-9.545-6.061-15.068v-95.873c0-9.523 7.72-17.242 17.242-17.242zM509.473 142c134.866 0 245.729 102.79 258.547 234.313l0.334 3.751 1.466 0.155c99.756 11.355 177.493 95.275 179.153 197.691l0.027 3.346c0 110.635-88.774 200.532-198.964 202.319l-3.345 0.027h-29.138c-16.506 0-29.887-13.383-29.887-29.892 0-16.273 13.001-29.509 29.181-29.884l0.706-0.008h29.138c78.72 0 142.536-63.827 142.536-142.562 0-77.947-62.546-141.283-140.18-142.542l-2.356-0.02h-7.361c-16.344 0-29.61-13.117-29.882-29.375l-0.004-0.71 0.035-5.488c0.003-0.43 0.005-0.86 0.005-1.29 0-109.378-87.766-198.254-196.703-200.02l-3.308-0.027h-18.831c-109.358 0-198.218 87.781-199.984 196.738l-0.027 3.308v6.973c0 16.273-13 29.509-29.18 29.884l-0.706 0.008h-1.436c-78.72 0-142.536 63.827-142.536 142.561 0 77.948 62.546 141.284 140.18 142.543l2.356 0.02h5.271c16.506 0 29.887 13.382 29.887 29.891 0 16.273-13.001 29.51-29.181 29.884l-0.706 0.008h-5.27C147.576 783.602 57 693.01 57 581.256c0-101.694 75.007-185.867 172.706-200.194l1.993-0.278 0.02-0.264C242.443 248.393 352 144.213 486.346 142.035l4.296-0.035h18.831z" p-id="16879"></path></svg>