<?xml version="1.0" standalone="no"?><!DOCTYPE svg PUBLIC "-//W3C//DTD SVG 1.1//EN" "http://www.w3.org/Graphics/SVG/1.1/DTD/svg11.dtd"><svg t="1700761089524" class="icon" viewBox="0 0 1024 1024" version="1.1" xmlns="http://www.w3.org/2000/svg" p-id="23275" xmlns:xlink="http://www.w3.org/1999/xlink" width="32" height="32"><path d="M512 64C264.576 64 64 264.576 64 512s200.576 448 448 448 448-200.576 448-448S759.424 64 512 64z m0 816c-202.916 0-368-165.084-368-368s165.084-368 368-368 368 165.084 368 368-165.084 368-368 368z" p-id="23276"></path><path d="M512 512m-64 0a64 64 0 1 0 128 0 64 64 0 1 0-128 0Z" p-id="23277"></path><path d="M304 512m-64 0a64 64 0 1 0 128 0 64 64 0 1 0-128 0Z" p-id="23278"></path><path d="M720 512m-64 0a64 64 0 1 0 128 0 64 64 0 1 0-128 0Z" p-id="23279"></path></svg>