<svg xmlns="http://www.w3.org/2000/svg" xmlns:xlink="http://www.w3.org/1999/xlink" fill="none" version="1.1" width="24" height="24" viewBox="0 0 24 24"><defs><clipPath id="master_svg0_1_4433"><rect x="0" y="0" width="24" height="24" rx="0"/></clipPath></defs><g clip-path="url(#master_svg0_1_4433)"><g><path d="M19.984955859375,0.5068338892711639C20.067255859375,0.518782989271164,20.137055859375,0.534154789271164,20.194355859375,0.5511426892711639C20.479355859375,0.6356839892711639,20.712055859375,0.842664989271164,20.829155859375,1.115925989271164C21.328755859375,2.281669989271164,21.447955859375,3.567369989271164,21.182255859375,4.7929099892711635C21.182255859375,4.7929099892711635,21.119955859375,5.048069989271164,21.119955859375,5.048069989271164C21.119955859375,5.048069989271164,21.279755859375,5.258919989271164,21.279755859375,5.258919989271164C22.012155859375,6.272369989271164,22.436255859375,7.481359989271164,22.493355859375,8.738869989271164C22.493355859375,8.738869989271164,22.499955859375,9.029859989271165,22.499955859375,9.029859989271165C22.499955859375,13.554799989271164,20.533055859375,15.831699989271163,16.988155859375,16.707799989271162C16.988155859375,16.707799989271162,16.703955859375,16.773099989271163,16.703955859375,16.773099989271163C16.703955859375,16.773099989271163,16.751855859375,16.894799989271164,16.751855859375,16.894799989271164C16.931955859375,17.394999989271163,17.019055859375,17.923099989271165,17.011655859375,18.403799989271164C17.011655859375,18.403799989271164,16.999955859375,18.639899989271164,16.999955859375,18.639899989271164C16.999955859375,18.639899989271164,16.999955859375,22.509899989271165,16.999955859375,22.509899989271165C16.999955859375,23.062199989271164,16.552255859375002,23.509899989271165,15.999955859375,23.509899989271165C15.487155859375,23.509899989271165,15.064455859375,23.123899989271163,15.006755859375,22.626499989271164C15.006755859375,22.626499989271164,14.999955859375,22.509899989271165,14.999955859375,22.509899989271165C14.999955859375,22.509899989271165,15.003055859375,18.561499989271162,15.003055859375,18.561499989271162C15.029455859375,18.226099989271162,14.984155859375,17.888999989271163,14.870155859375,17.572499989271165C14.778955859375,17.319299989271165,14.645555859375,17.083999989271163,14.475855859375,16.876399989271164C14.475855859375,16.876399989271164,14.341955859375,16.725899989271163,14.341955859375,16.725899989271163C13.763455859375,16.129199989271164,14.123155859375,15.128099989271163,14.949255859375,15.036099989271165C18.718055859375,14.615999989271163,20.499955859375,13.117599989271165,20.499955859375,9.030069989271164C20.499755859375,7.890489989271164,20.061455859375,6.7946699892711635,19.275755859375,5.969379989271164C19.011855859375,5.692209989271164,18.929255859375,5.288729989271164,19.063155859375,4.930189989271164C19.344655859375,4.175969989271164,19.394255859375,3.360579989271164,19.214555859375,2.586519989271164C19.214555859375,2.586519989271164,19.200955859375,2.537069989271164,19.200955859375,2.537069989271164C19.200955859375,2.537069989271164,19.106655859375,2.560519989271164,19.106655859375,2.560519989271164C19.106655859375,2.560519989271164,18.971655859375,2.597179989271164,18.971655859375,2.597179989271164C18.327255859375,2.782669989271164,17.524155859375,3.172029989271164,16.556755859375002,3.820499989271164C16.316355859375,3.981689989271164,16.017855859375,4.030769989271164,15.738455859375,3.955039989271164C13.617755859375,3.380289989271164,11.382255859375,3.380289989271164,9.261575859375,3.955039989271164C8.982165859375,4.030769989271164,8.683655859375001,3.981689989271164,8.443185859375,3.820499989271164C7.563735859375,3.230979989271164,6.820115859375,2.855609989271164,6.208055859375,2.652859989271164C6.208055859375,2.652859989271164,5.959205859375,2.577829989271164,5.959205859375,2.577829989271164C5.959205859375,2.577829989271164,5.797995859375,2.537069989271164,5.797995859375,2.537069989271164C5.797995859375,2.537069989271164,5.785475859375,2.586499989271164,5.785475859375,2.586499989271164C5.623705859375,3.283139989271164,5.647745859375,4.013269989271164,5.859375859375,4.702199989271164C5.859375859375,4.702199989271164,5.936875859375,4.930209989271164,5.936875859375,4.930209989271164C6.070685859375,5.288759989271164,5.988125859375,5.692219989271164,5.724245859375,5.969389989271164C4.932665859375,6.800829989271164,4.4938558593749995,7.906569989271164,4.499915859375,9.059859989271164C4.499915859375,13.109099989271163,6.268505859375,14.596199989271163,10.063245859375,15.067499989271164C10.842955859375,15.164399989271164,11.197855859375,16.069999989271164,10.734255859375,16.668099989271163C10.734255859375,16.668099989271163,10.658525859375,16.755399989271165,10.658525859375,16.755399989271165C10.427245859375,16.994299989271163,10.248785859375,17.279499989271162,10.134875859375,17.592099989271166C10.043755859375,17.842199989271165,9.995585859375,18.105399989271163,9.993175859375,18.406499989271165C9.993175859375,18.406499989271165,9.999995859375,18.639899989271164,9.999995859375,18.639899989271164C9.999995859375,18.639899989271164,9.999995859375,22.509899989271165,9.999995859375,22.509899989271165C9.999995859375,23.062199989271164,9.552275859375,23.509899989271165,8.999995859375,23.509899989271165C8.487155859375001,23.509899989271165,8.064485859375,23.123899989271163,8.006715859375,22.626499989271164C8.006715859375,22.626499989271164,7.999995859375,22.509899989271165,7.999995859375,22.509899989271165C7.999995859375,22.509899989271165,8.000045859375,20.771599989271163,8.000045859375,20.771599989271163C5.871725859375,21.118699989271164,4.489605859375001,20.465899989271165,3.218055859375,18.971399989271163C3.218055859375,18.971399989271163,2.946945859375,18.638799989271163,2.946945859375,18.638799989271163C2.946945859375,18.638799989271163,2.610395859375,18.214799989271164,2.610395859375,18.214799989271164C2.258495859375,17.779899989271165,2.035745859375,17.579299989271163,1.826765859375,17.501599989271163C1.826765859375,17.501599989271163,1.757456859375,17.479999989271164,1.757456859375,17.479999989271164C1.221661859375,17.346099989271163,0.895900859375,16.803199989271164,1.029849959375,16.267399989271162C1.163798859375,15.731599989271164,1.706732859375,15.405799989271165,2.242525859375,15.539799989271163C2.943775859375,15.715099989271163,3.434545859375,16.091799989271166,4.006795859375,16.765499989271163C4.006795859375,16.765499989271163,4.211505859375,17.014499989271165,4.211505859375,17.014499989271165C4.211505859375,17.014499989271165,4.615575859374999,17.523599989271165,4.615575859374999,17.523599989271165C5.564725859375,18.698799989271166,6.353105859375,19.103199989271165,8.002445859375001,18.739299989271164C8.002445859375001,18.739299989271164,8.002455859375,18.709999989271164,8.002455859375,18.709999989271164C7.965565859375,18.185399989271165,8.023695859375,17.659299989271165,8.173305859374999,17.156699989271164C8.173305859374999,17.156699989271164,8.255725859375,16.907499989271162,8.255725859375,16.907499989271162C8.255725859375,16.907499989271162,8.301995859375001,16.789099989271165,8.301995859375001,16.789099989271165C8.301995859375001,16.789099989271165,8.246165859375001,16.776899989271165,8.246165859375001,16.776899989271165C4.622105859375,15.928299989271164,2.591395859375,13.753499989271164,2.502945859375,9.367599989271165C2.502945859375,9.367599989271165,2.499925859375,9.065119989271164,2.499925859375,9.065119989271164C2.492715859375,7.693869989271164,2.923075859375,6.364209989271164,3.716445859375,5.264079989271164C3.716445859375,5.264079989271164,3.878995859375,5.047069989271164,3.878995859375,5.047069989271164C3.878995859375,5.047069989271164,3.817695859375,4.792859989271164,3.817695859375,4.792859989271164C3.572505859375,3.661579989271164,3.655175859375,2.479059989271164,4.0623158593749995,1.386969989271164C4.0623158593749995,1.386969989271164,4.170855859375,1.115912989271164,4.170855859375,1.115912989271164C4.287975859375,0.842658989271164,4.520605859374999,0.635682989271164,4.8056258593750005,0.5511426892711639C4.862895859375,0.534154789271164,4.932745859375,0.518782989271164,5.015065859375,0.5068338892711639C5.926755859375,0.37449598927116395,7.250535859375,0.7196829892711639,9.014405859375,1.809619989271164C9.014405859375,1.809619989271164,9.177995859375,1.912069989271164,9.177995859375,1.912069989271164C9.177995859375,1.912069989271164,9.612905859375,1.816769989271164,9.612905859375,1.816769989271164C11.517755859375,1.426373989271164,13.482255859375,1.426373989271164,15.387055859375,1.816769989271164C15.387055859375,1.816769989271164,15.820955859375,1.912069989271164,15.820955859375,1.912069989271164C15.820955859375,1.912069989271164,15.985555859375,1.809619989271164,15.985555859375,1.809619989271164C17.749455859375,0.7196829892711639,19.073255859375,0.37449598927116395,19.984955859375,0.5068338892711639C19.984955859375,0.5068338892711639,19.984955859375,0.5068338892711639,19.984955859375,0.5068338892711639Z" fill="#000000" fill-opacity="1"/></g></g></svg>