<?xml version="1.0" standalone="no"?><!DOCTYPE svg PUBLIC "-//W3C//DTD SVG 1.1//EN" "http://www.w3.org/Graphics/SVG/1.1/DTD/svg11.dtd"><svg t="1722054575187" class="icon" viewBox="0 0 1024 1024" version="1.1" xmlns="http://www.w3.org/2000/svg" p-id="1439" xmlns:xlink="http://www.w3.org/1999/xlink" width="32" height="32"><path d="M0.140296 512.046765a510.789452 510.789452 0 0 1 187.061456-395.527953l211.584188 276.729969 54.350194 93.437663h-130.291561v58.631202h152.068865v84.177655H322.844573v59.515324h152.068865v120.519694h74.126591v-120.519694h75.755237l183.804166 240.294864a509.440003 509.440003 0 0 1-296.645965 94.694046A511.859704 511.859704 0 0 1 0.140296 512.046765z m695.617338 138.620915v-21.265444h-16.286445l-64.308192-84.177655h80.594637v-58.631203h-125.638291l-0.51186-0.744523v-0.279196l159.188368-270.913382h-79.105591l-90.273438 166.400937c-11.633175 21.730771-21.079313 40.064655-28.384948 54.908586l-113.679387-148.904641q-19.6368-36.388572-39.506262-72.637545h-15.960716L251.882205 70.544504a510.091461 510.091461 0 0 1 259.605935-70.636639 511.859704 511.859704 0 0 1 511.859704 511.859704 510.137994 510.137994 0 0 1-154.116303 366.072754z m-146.671072-21.265444v-39.645861l30.292788 39.645861z m-37.22616-629.168642z" fill="#f8b02d" p-id="1440"></path></svg>