<svg xmlns="http://www.w3.org/2000/svg" xmlns:xlink="http://www.w3.org/1999/xlink" fill="none" version="1.1" width="152" height="120" viewBox="0 0 152 120"><defs><clipPath id="master_svg0_15648_108449"><rect x="0" y="0" width="152" height="120" rx="0"/></clipPath><linearGradient x1="0.5" y1="0" x2="0.5" y2="1" id="master_svg1_917_061034"><stop offset="0%" stop-color="#FAFAFA" stop-opacity="1"/><stop offset="100%" stop-color="#F1F1F1" stop-opacity="1"/></linearGradient><filter id="master_svg2_15648_108453" filterUnits="objectBoundingBox" color-interpolation-filters="sRGB" x="-20" y="-12" width="137.0000228881836" height="121"><feFlood flood-opacity="0" result="BackgroundImageFix"/><feColorMatrix in="SourceAlpha" type="matrix" values="0 0 0 0 0 0 0 0 0 0 0 0 0 0 0 0 0 0 127 0"/><feOffset dy="8" dx="0"/><feGaussianBlur stdDeviation="5"/><feColorMatrix type="matrix" values="0 0 0 0 0 0 0 0 0 0 0 0 0 0 0 0 0 0 0.10000000149011612 0"/><feBlend mode="normal" in2="BackgroundImageFix" result="effect1_dropShadow"/><feBlend mode="normal" in="SourceGraphic" in2="effect1_dropShadow" result="shape"/></filter><mask id="master_svg3_15648_108458"><g><path d="M13,23.381730105090142L71.2055,23.381730105090142L71.2055,12.186930105090141L22.44011,12.186930105090141C22.37368,12.186930105090141,13.327289,14.924240105090142,13,23.381730105090142Z" fill="#FFFFFF" fill-opacity="1"/></g></mask><linearGradient x1="0" y1="0.49999815225601196" x2="1.0000001192092896" y2="0.49999815225601196" id="master_svg4_917_061666"><stop offset="0%" stop-color="#EDEDED" stop-opacity="1"/><stop offset="100%" stop-color="#CECFD0" stop-opacity="1"/></linearGradient><linearGradient x1="-0.019929103553295135" y1="0.5" x2="0.9782270789146423" y2="0.5000001192092896" id="master_svg5_917_062561"><stop offset="0%" stop-color="#EDEDED" stop-opacity="1"/><stop offset="100%" stop-color="#FAFAFA" stop-opacity="1"/></linearGradient><linearGradient x1="0.1522490680217743" y1="0.5" x2="1" y2="0.5" id="master_svg6_917_053785"><stop offset="0%" stop-color="#E8E8E8" stop-opacity="1"/><stop offset="0%" stop-color="#E8E8E8" stop-opacity="1"/><stop offset="100%" stop-color="#FAFAFA" stop-opacity="1"/></linearGradient><linearGradient x1="-0.21377693116664886" y1="0.6463832259178162" x2="1.0668883323669434" y2="0.44189387559890747" id="master_svg7_15648_060206"><stop offset="0%" stop-color="#FFFFFF" stop-opacity="0"/><stop offset="100%" stop-color="#8C979F" stop-opacity="1"/></linearGradient><linearGradient x1="0.3024010956287384" y1="-0.6187843084335327" x2="0.7375879287719727" y2="1.8416274785995483" id="master_svg8_15648_060127"><stop offset="0%" stop-color="#FFFFFF" stop-opacity="0"/><stop offset="100%" stop-color="#8C979F" stop-opacity="1"/></linearGradient><linearGradient x1="0.9847544431686401" y1="0.8221097588539124" x2="0.5325443148612976" y2="0.3007126450538635" id="master_svg9_15648_060184"><stop offset="0%" stop-color="#FFFFFF" stop-opacity="0"/><stop offset="100%" stop-color="#8C979F" stop-opacity="1"/></linearGradient><linearGradient x1="-0.23809276521205902" y1="0.49929624795913696" x2="1.2980140447616577" y2="0.49929624795913696" id="master_svga_15648_060177"><stop offset="0%" stop-color="#FFFFFF" stop-opacity="0"/><stop offset="100%" stop-color="#8C979F" stop-opacity="1"/></linearGradient><linearGradient x1="0.07317032665014267" y1="0.12153921276330948" x2="0.9435439705848694" y2="0.8893235325813293" id="master_svgb_15648_060187"><stop offset="0%" stop-color="#FFFFFF" stop-opacity="0"/><stop offset="100%" stop-color="#8C979F" stop-opacity="1"/></linearGradient><linearGradient x1="1.0894193649291992" y1="0.8315295577049255" x2="0.38341885805130005" y2="-0.007965861819684505" id="master_svgc_15648_060209"><stop offset="0%" stop-color="#FFFFFF" stop-opacity="0"/><stop offset="100%" stop-color="#8C979F" stop-opacity="1"/></linearGradient><linearGradient x1="0.685230553150177" y1="0.34781506657600403" x2="0.19939261674880981" y2="0.8209854364395142" id="master_svgd_15648_060214"><stop offset="0%" stop-color="#FFFFFF" stop-opacity="0"/><stop offset="99.99990463256836%" stop-color="#8C979F" stop-opacity="1"/></linearGradient><linearGradient x1="0.8611321449279785" y1="0.9187294840812683" x2="0.15794840455055237" y2="-0.034011565148830414" id="master_svge_15648_060109"><stop offset="0%" stop-color="#1E2A5D" stop-opacity="1"/><stop offset="25%" stop-color="#729ED4" stop-opacity="1"/><stop offset="49.00999963283539%" stop-color="#FFFFFF" stop-opacity="1"/><stop offset="77.9699981212616%" stop-color="#6896CF" stop-opacity="1"/><stop offset="100%" stop-color="#1E2A5D" stop-opacity="1"/></linearGradient><linearGradient x1="0.2425660341978073" y1="0.5575916767120361" x2="0.7717753648757935" y2="0.31396809220314026" id="master_svgf_15648_060115"><stop offset="0%" stop-color="#1950A1" stop-opacity="0.699999988079071"/><stop offset="42.329999804496765%" stop-color="#729ED4" stop-opacity="0.5"/><stop offset="100%" stop-color="#AACDEC" stop-opacity="0"/></linearGradient><linearGradient x1="0.13451382517814636" y1="0.6345652937889099" x2="1.0581876039505005" y2="0.28829044103622437" id="master_svgg_15648_060112"><stop offset="0%" stop-color="#1950A1" stop-opacity="1"/><stop offset="54.46000099182129%" stop-color="#AACDEC" stop-opacity="1"/><stop offset="100%" stop-color="#1950A1" stop-opacity="1"/></linearGradient><linearGradient x1="0.18014077842235565" y1="0.6546836495399475" x2="0.8295261263847351" y2="0.3371484875679016" id="master_svgh_15648_060124"><stop offset="51.980000734329224%" stop-color="#DABB1A" stop-opacity="1"/><stop offset="100%" stop-color="#7C6D2A" stop-opacity="1"/></linearGradient><linearGradient x1="0.20382782816886902" y1="0.6549587845802307" x2="0.8789811134338379" y2="0.2946555018424988" id="master_svgi_15648_060120"><stop offset="51.980000734329224%" stop-color="#DABB1A" stop-opacity="1"/><stop offset="100%" stop-color="#7C6D2A" stop-opacity="1"/></linearGradient><linearGradient x1="0.17835432291030884" y1="0.3368203938007355" x2="0.8240677714347839" y2="0.6109066605567932" id="master_svgj_15648_060130"><stop offset="0%" stop-color="#FFFFFF" stop-opacity="0"/><stop offset="100%" stop-color="#8C979F" stop-opacity="1"/></linearGradient><linearGradient x1="0.25121840834617615" y1="0.09997749328613281" x2="0.7268608212471008" y2="1.0915049314498901" id="master_svgk_15648_060133"><stop offset="0%" stop-color="#FFFFFF" stop-opacity="0"/><stop offset="100%" stop-color="#8C979F" stop-opacity="1"/></linearGradient><linearGradient x1="0.8580688834190369" y1="1.1877834796905518" x2="0.34326815605163574" y2="-0.06549445539712906" id="master_svgl_15648_060180"><stop offset="0%" stop-color="#FFFFFF" stop-opacity="0"/><stop offset="100%" stop-color="#8C979F" stop-opacity="1"/></linearGradient><radialGradient cx="0" cy="0" r="1" gradientUnits="userSpaceOnUse" id="master_svgm_15648_060194" gradientTransform="translate(176.9831216689313 99.77129201063053) rotate(0) scale(5.838544619222716 5.833050782281469)"><stop offset="68.80999803543091%" stop-color="#FFFFFF" stop-opacity="1"/><stop offset="100%" stop-color="#FFFFFF" stop-opacity="0"/></radialGradient><linearGradient x1="0.800883948802948" y1="0.10431768000125885" x2="0.15343093872070312" y2="0.9554668664932251" id="master_svgn_15648_060199"><stop offset="0%" stop-color="#BFE4F3" stop-opacity="1"/><stop offset="46.29000127315521%" stop-color="#5282C3" stop-opacity="1"/><stop offset="100%" stop-color="#1950A1" stop-opacity="1"/></linearGradient><linearGradient x1="0.1271403431892395" y1="0.24571716785430908" x2="0.9578211903572083" y2="1.0459301471710205" id="master_svgo_15648_060164"><stop offset="0%" stop-color="#FFFFFF" stop-opacity="0"/><stop offset="100%" stop-color="#8C979F" stop-opacity="1"/></linearGradient><linearGradient x1="0.4998982846736908" y1="1.0023193359375" x2="0.4998982846736908" y2="-0.0535929836332798" id="master_svgp_15648_060141"><stop offset="0%" stop-color="#1950A1" stop-opacity="1"/><stop offset="73.01999926567078%" stop-color="#5E8DCA" stop-opacity="1"/><stop offset="100%" stop-color="#729ED4" stop-opacity="1"/></linearGradient><linearGradient x1="0.05816256254911423" y1="0.9000455737113953" x2="0.8715813755989075" y2="0.024878013879060745" id="master_svgq_15648_060152"><stop offset="0%" stop-color="#1E2A5D" stop-opacity="1"/><stop offset="25%" stop-color="#729ED4" stop-opacity="1"/><stop offset="49.00999963283539%" stop-color="#FFFFFF" stop-opacity="1"/><stop offset="77.9699981212616%" stop-color="#6896CF" stop-opacity="1"/><stop offset="100%" stop-color="#1E2A5D" stop-opacity="1"/></linearGradient><linearGradient x1="0.6728293299674988" y1="0.6247875094413757" x2="0.26567381620407104" y2="0.2875937521457672" id="master_svgr_15648_060146"><stop offset="0%" stop-color="#1950A1" stop-opacity="0.699999988079071"/><stop offset="42.329999804496765%" stop-color="#729ED4" stop-opacity="0.5"/><stop offset="100%" stop-color="#AACDEC" stop-opacity="0"/></linearGradient><linearGradient x1="0.762667715549469" y1="0.7068229913711548" x2="0.11138878762722015" y2="0.19466464221477509" id="master_svgs_15648_060149"><stop offset="0%" stop-color="#1950A1" stop-opacity="1"/><stop offset="54.46000099182129%" stop-color="#AACDEC" stop-opacity="1"/><stop offset="100%" stop-color="#1950A1" stop-opacity="1"/></linearGradient><linearGradient x1="0.7105792760848999" y1="0.7227261662483215" x2="0.2820059061050415" y2="0.28038907051086426" id="master_svgt_15648_060160"><stop offset="51.980000734329224%" stop-color="#DABB1A" stop-opacity="1"/><stop offset="100%" stop-color="#7C6D2A" stop-opacity="1"/></linearGradient><linearGradient x1="0.7004525661468506" y1="0.7231221199035645" x2="0.24655406177043915" y2="0.21986734867095947" id="master_svgu_15648_060156"><stop offset="51.980000734329224%" stop-color="#DABB1A" stop-opacity="1"/><stop offset="100%" stop-color="#7C6D2A" stop-opacity="1"/></linearGradient><linearGradient x1="0.23809507489204407" y1="0.6268287897109985" x2="0.7013137340545654" y2="0.36398711800575256" id="master_svgv_917_063116"><stop offset="0%" stop-color="#EDEDED" stop-opacity="1"/><stop offset="99.99990463256836%" stop-color="#CECFD0" stop-opacity="1"/></linearGradient><linearGradient x1="0.8921592235565186" y1="0.6578565239906311" x2="0.165976420044899" y2="0.09524117410182953" id="master_svgw_15648_057850"><stop offset="0%" stop-color="#E4E4E4" stop-opacity="1"/><stop offset="99.99996423721313%" stop-color="#EEEEEE" stop-opacity="1"/></linearGradient><linearGradient x1="0.8580688834190369" y1="1.1877834796905518" x2="0.34326815605163574" y2="-0.06549445539712906" id="master_svgx_15648_060220"><stop offset="0%" stop-color="#8C979F" stop-opacity="1"/><stop offset="100%" stop-color="#FFFFFF" stop-opacity="0"/></linearGradient></defs><g clip-path="url(#master_svg0_15648_108449)"><g><ellipse cx="76.29293441772461" cy="60.863311767578125" rx="59.05172348022461" ry="59.136688232421875" fill="url(#master_svg1_917_061034)" fill-opacity="1"/></g><g filter="url(#master_svg2_15648_108453)"><g><g></g><g mask="url(#master_svg3_15648_108458)"><g><path d="M39.2572,23.381730105070734L39.2572,12.186930105070733L24.5,12.186930105070733C24.47333,12.186930105070733,16.130775,14.924240105070734,16,23.381730105070734L39.2572,23.381730105070734Z" fill-rule="evenodd" fill="url(#master_svg4_917_061666)" fill-opacity="1"/></g></g></g><g><path d="M25.894200932540894,12.000030517578125C19.954860932540893,12.000030517578125,16.093910932540894,16.821880517578126,16.093910932540894,22.713930517578127C16.093910932540894,22.899930517578127,16.109687432540895,23.086730517578125,16.125160932540894,23.272530517578126C16.422127932540892,17.644220517578127,20.158050932540895,13.116240517578126,25.909830932540892,13.116240517578126C31.849210932540892,13.116240517578126,34.7100109325409,17.938560517578125,34.7100109325409,23.830630517578125L34.7100109325409,33.42823051757813L34.7100109325409,82.25473051757812C34.7100109325409,88.14663051757813,39.5709109325409,92.96873051757812,45.51021093254089,92.96873051757812L92.13541093254089,92.96883051757813C98.07491093254089,92.96883051757813,102.93591093254089,88.14663051757813,102.93591093254089,82.25473051757812L102.93591093254089,22.714230517578123C102.93591093254089,16.822180517578126,98.07491093254089,12.000030517578125,92.13541093254089,12.000030517578125L25.894200932540894,12.000030517578125Z" fill-rule="evenodd" fill="url(#master_svg5_917_062561)" fill-opacity="1"/></g><g><path d="M56.591460583496094,77.97537868847657L56.591460583496094,82.09979068847656C56.591460583496094,88.10053068847657,51.65241058349609,93.00003068847656,45.603660583496094,93.00003068847656L99.0122605834961,93.00003068847656L99.0122605834961,92.98473068847656C105.0611605834961,92.98473068847656,110.0000605834961,88.08483068847656,110.0000605834961,82.08443068847656L110.0000605834961,77.83583068847656L56.591460583496094,77.97537868847657Z" fill-rule="evenodd" fill="url(#master_svg6_917_053785)" fill-opacity="1"/></g><g><path d="M43.3541259765625,35.598915009765626C43.3541259765625,36.482735009765626,44.0730989765625,37.19593500976563,44.9639959765625,37.19593500976563L52.9977359765625,37.19593500976563C53.8886259765625,37.19593500976563,54.6076259765625,36.482735009765626,54.6076259765625,35.598915009765626L54.6076259765625,27.629185009765624C54.6076259765625,26.745534009765624,53.8730259765625,26.032135009765625,52.9977359765625,26.032135009765625L44.9639959765625,26.032135009765625C44.0730989765625,26.032135009765625,43.3541259765625,26.745534009765624,43.3541259765625,27.629185009765624L43.3541259765625,35.598915009765626ZM43.3541259765625,52.236335009765625C43.3541259765625,53.120135009765626,44.0730989765625,53.83343500976562,44.9639959765625,53.83343500976562L52.9977359765625,53.83343500976562C53.8886259765625,53.83343500976562,54.6076259765625,53.120135009765626,54.6076259765625,52.236335009765625L54.6076259765625,44.26683500976563C54.6076259765625,43.398335009765624,53.8730259765625,42.66963500976563,52.9977359765625,42.66963500976563L44.9639959765625,42.66963500976563C44.0730989765625,42.66963500976563,43.3541259765625,43.38303500976562,43.3541259765625,44.26683500976563L43.3541259765625,52.236335009765625ZM61.5782259765625,28.296055009765624C61.5782259765625,28.947115009765625,62.1096259765625,29.489805009765625,62.7817259765625,29.489805009765625L96.27652597656251,29.489805009765625C96.9329259765625,29.489805009765625,97.4800259765625,28.947115009765625,97.4800259765625,28.296055009765624C97.4800259765625,27.644825009765626,96.9329259765625,27.102145009765625,96.27652597656251,27.102145009765625L62.7817259765625,27.102145009765625C62.1253259765625,27.102145009765625,61.5782259765625,27.644825009765626,61.5782259765625,28.296055009765624ZM61.5785259765625,34.59129500976562C61.5629259765625,35.242515009765626,62.1100259765625,35.785205009765626,62.7820259765625,35.785205009765626L79.6623259765625,35.785205009765626C80.31872597656249,35.785205009765626,80.86582597656249,35.242515009765626,80.86582597656249,34.59129500976562L80.86582597656249,34.498265009765625C80.86582597656249,33.84703500976563,80.31872597656249,33.30435500976562,79.6623259765625,33.30435500976562L62.7820259765625,33.30435500976562C62.1256259765625,33.30435500976562,61.5785259765625,33.84703500976563,61.5785259765625,34.498265009765625L61.5785259765625,34.59129500976562ZM61.5782259765625,44.94873500976563C61.5782259765625,45.59993500976562,62.1253259765625,46.14263500976563,62.7817259765625,46.14263500976563L96.27652597656251,46.14263500976563C96.9329259765625,46.14263500976563,97.4800259765625,45.59993500976562,97.4800259765625,44.94873500976563C97.4800259765625,44.29743500976562,96.9329259765625,43.75483500976563,96.2608259765625,43.75483500976563L62.7817259765625,43.75483500976563C62.1253259765625,43.75483500976563,61.5782259765625,44.29743500976562,61.5782259765625,44.94873500976563ZM61.5785259765625,51.244035009765625C61.5629259765625,51.895135009765625,62.1100259765625,52.43783500976562,62.7820259765625,52.43783500976562L79.6623259765625,52.43783500976562C80.31872597656249,52.43783500976562,80.86582597656249,51.895135009765625,80.86582597656249,51.244035009765625L80.86582597656249,51.15083500976563C80.86582597656249,50.499635009765626,80.31872597656249,49.95693500976563,79.6623259765625,49.95693500976563L62.7820259765625,49.95693500976563C62.1256259765625,49.95693500976563,61.5785259765625,50.499635009765626,61.5785259765625,51.15083500976563L61.5785259765625,51.244035009765625ZM43.3541259765625,68.54793500976562C43.3541259765625,69.43173500976562,44.0730989765625,70.14503500976562,44.9639959765625,70.14503500976562L52.9977359765625,70.14503500976562C53.8886259765625,70.14503500976562,54.6076259765625,69.43173500976562,54.6076259765625,68.54793500976562L54.6076259765625,60.57823500976563C54.6076259765625,59.69453500976562,53.8730259765625,58.98113500976562,52.9977359765625,58.98113500976562L44.9639959765625,58.98113500976562C44.0730989765625,58.98113500976562,43.3541259765625,59.69453500976562,43.3541259765625,60.57823500976563L43.3541259765625,68.54793500976562ZM61.5782259765625,61.245135009765626C61.5782259765625,61.896235009765626,62.1253259765625,62.43893500976562,62.7817259765625,62.43893500976562L96.27652597656251,62.43893500976562C96.9329259765625,62.43893500976562,97.4800259765625,61.896235009765626,97.4800259765625,61.245135009765626C97.4800259765625,60.59393500976562,96.9329259765625,60.05123500976563,96.2608259765625,60.05123500976563L62.7817259765625,60.05123500976563C62.1253259765625,60.05123500976563,61.5782259765625,60.59393500976562,61.5782259765625,61.245135009765626ZM61.5782259765625,67.53953500976561C61.5782259765625,68.19073500976563,62.1253259765625,68.73343500976563,62.7817259765625,68.73343500976563L79.6619259765625,68.73343500976563C80.31842597656251,68.73343500976563,80.8654259765625,68.19073500976563,80.8654259765625,67.53953500976561L80.8654259765625,67.44653500976563C80.8654259765625,66.79523500976563,80.31842597656251,66.25263500976563,79.6619259765625,66.25263500976563L62.7817259765625,66.25263500976563C62.1253259765625,66.25263500976563,61.5782259765625,66.79523500976563,61.5782259765625,67.44653500976563L61.5782259765625,67.53953500976561Z" fill="#FFFFFF" fill-opacity="1"/></g></g><g><ellipse cx="138.17241382598877" cy="18.17988634109497" rx="5.1724138259887695" ry="5.179855823516846" fill="#F0F0F0" fill-opacity="1"/></g><g><ellipse cx="7.3275861740112305" cy="101.43874549865723" rx="7.3275861740112305" ry="7.338129043579102" fill="#F0F0F0" fill-opacity="1"/></g><g><ellipse cx="12.069133758544922" cy="4.316546440124512" rx="4.310344696044922" ry="4.316546440124512" fill="#F0F0F0" fill-opacity="1"/></g><g><ellipse cx="147.44827580451965" cy="8.453267812728882" rx="3.4482758045196533" ry="3.453237295150757" fill="#F0F0F0" fill-opacity="1"/></g><g><g transform="matrix(-1,0,0,1,304.000244140625,0)"><g><g><path d="M188.00759711486816,103.50983047485352Q187.63370711486817,111.62610047485352,185.55396711486816,113.87153047485351C183.47423711486817,116.11693047485352,177.91269311486818,117.38003047485351,178.77730171486817,108.70237047485351" fill="#FFFFFF" fill-opacity="1"/></g><g><path d="M188.00759711486816,103.50983047485352Q187.63370711486817,111.62610047485352,185.55396711486816,113.87153047485351C183.47423711486817,116.11693047485352,177.91269311486818,117.38003047485351,178.77730171486817,108.70237047485351" fill="url(#master_svg7_15648_060206)" fill-opacity="1"/></g><g><ellipse cx="182.3058443069458" cy="114.80711627006531" rx="4.252943992614746" ry="1.1928813457489014" fill="#FFFFFF" fill-opacity="1"/></g><g><ellipse cx="182.3058443069458" cy="114.80711627006531" rx="4.252943992614746" ry="1.1928813457489014" fill="url(#master_svg8_15648_060127)" fill-opacity="1"/></g><g><path d="M178.77730178833008,108.72576342529297Q184.3154817883301,111.04135342529297,185.9512217883301,113.35694342529297Q187.68044178833009,111.13491342529296,188.00759178833007,103.53321618529297C188.00759178833007,103.50983202529297,183.10035178833007,106.34000342529296,178.77730178833008,108.72576342529297Z" fill="url(#master_svg9_15648_060184)" fill-opacity="1"/></g><g><path d="M182.9277790966797,110.54328508789062Q181.22470909667967,110.97223508789062,178.7050729566797,111.01809508789063L178.7093252366797,111.25173508789062Q181.29347909667968,111.20469508789063,183.03595909667968,110.75688508789062L183.0860590966797,110.74400508789063L183.7363890966797,109.51188508789062Q185.1887790966797,109.31119508789062,187.5371090966797,108.36636008789063L187.4498890966797,108.14957008789062Q185.0802290966797,109.10298108789063,183.64620909667968,109.28818508789062L183.58612909667968,109.29594508789063L182.9277790966797,110.54328508789062Z" fill-rule="evenodd" fill="#7D8E97" fill-opacity="1"/></g><g><path d="M182.9277790966797,110.35616655761719Q181.22470909667967,110.78511655761719,178.7050729566797,110.83097655761719L178.7093252366797,111.06461655761719Q181.29347909667968,111.01757655761719,183.03595909667968,110.56976655761719L183.0860590966797,110.55688655761719L183.7363890966797,109.32476655761718Q185.1887790966797,109.12407655761719,187.5371090966797,108.17924155761719L187.4498890966797,107.96245155761719Q185.0802290966797,108.91586255761719,183.64620909667968,109.10106655761719L183.58612909667968,109.10882655761719L182.9277790966797,110.35616655761719Z" fill-rule="evenodd" fill="#FFFFFF" fill-opacity="1"/></g><g><path d="M165.17723083496094,103.46305084228516Q165.55111583496094,111.57932084228516,167.63085083496094,113.82475084228516C169.71059083496093,116.07015084228516,175.27213083496093,117.33325084228515,174.40752083496093,108.65559084228515" fill="#FFFFFF" fill-opacity="1"/></g><g><path d="M165.17723083496094,103.46305084228516Q165.55111583496094,111.57932084228516,167.63085083496094,113.82475084228516C169.71059083496093,116.07015084228516,175.27213083496093,117.33325084228515,174.40752083496093,108.65559084228515" fill="url(#master_svga_15648_060177)" fill-opacity="1"/></g><g><ellipse cx="170.87897777557373" cy="114.76034808158875" rx="4.252943992614746" ry="1.1928813457489014" fill="#FFFFFF" fill-opacity="1"/></g><g><ellipse cx="170.87897777557373" cy="114.76034808158875" rx="4.252943992614746" ry="1.1928813457489014" fill="url(#master_svgb_15648_060187)" fill-opacity="1"/></g><g><path d="M168.26178169250488,107.15865103496094Q173.37933169250488,110.15255083496093,173.9635316925049,113.56746083496094Q174.7814016925049,112.30441083496093,174.40752169250487,108.65560083496094Q170.71540169250488,106.85457883496093,168.26178169250488,107.15865103496094Z" fill="url(#master_svgc_15648_060209)" fill-opacity="1"/></g><g><path d="M170.14886041931152,110.68672517578125Q171.89133041931152,111.13453517578125,174.47550041931152,111.18157517578125L174.47975041931153,110.94793517578125Q171.96011041931152,110.90206517578125,170.25705041931153,110.47312517578125L169.5986904193115,109.22578517578125L169.5386104193115,109.21802517578125Q168.1046104193115,109.03282517578126,165.73493201931151,108.07941017578125L165.64770881931153,108.29620017578125Q167.99606041931153,109.24103517578125,169.4484404193115,109.44172517578124L170.09876041931153,110.67384517578125L170.14886041931152,110.68672517578125Z" fill-rule="evenodd" fill="#7D8E97" fill-opacity="1"/></g><g><path d="M170.14886041931152,110.49959901611328Q171.89133041931152,110.94740901611328,174.47550041931152,110.99444901611328L174.47975041931153,110.76080901611328Q171.96011041931152,110.71493901611328,170.25705041931153,110.28599901611328L169.5986904193115,109.03865901611329L169.5386104193115,109.03089901611328Q168.1046104193115,108.84569901611329,165.73493201931151,107.89228401611328L165.64770881931153,108.10907401611328Q167.99606041931153,109.05390901611328,169.4484404193115,109.25459901611327L170.09876041931153,110.48671901611328L170.14886041931152,110.49959901611328Z" fill-rule="evenodd" fill="#FFFFFF" fill-opacity="1"/></g><g><path d="M183.35739707946777,87.23051071166992Q194.12999707946778,92.11898071166992,199.22419707946779,94.22407071166992C199.62139707946778,94.38780071166993,200.57949707946779,95.41695071166993,199.57469707946777,96.23560071166992Q198.92039707946776,96.75017071166992,197.26129707946777,96.07187071166992Q197.07429707946778,97.75591071166993,195.76569707946777,98.38741071166993C194.03649707946778,99.20611071166992,189.43303707946777,99.01901071166992,186.58215707946778,96.11865071166991" fill="#FFFFFF" fill-opacity="1"/></g><g><path d="M183.35739707946777,87.23051071166992Q194.12999707946778,92.11898071166992,199.22419707946779,94.22407071166992C199.62139707946778,94.38780071166993,200.57949707946779,95.41695071166993,199.57469707946777,96.23560071166992Q198.92039707946776,96.75017071166992,197.26129707946777,96.07187071166992Q197.07429707946778,97.75591071166993,195.76569707946777,98.38741071166993C194.03649707946778,99.20611071166992,189.43303707946777,99.01901071166992,186.58215707946778,96.11865071166991" fill="url(#master_svgd_15648_060214)" fill-opacity="1"/></g><g><g><path d="M193.3821935856819,65.36102099487304Q191.11551358568192,61.73559099487305,191.4192960856819,59.30305099487305L196.13959358568192,59.37322029487305L200.08875358568193,66.17966099487305L197.82207358568192,70.31965099487304Q195.9292835856819,69.43085099487305,193.3821935856819,65.36102099487304Z" fill="url(#master_svge_15648_060109)" fill-opacity="1"/></g><g><path d="M193.3821910620117,65.36102099487304Q190.97530506201173,61.40813099487305,191.4192960620117,59.30305099487305L196.13959106201173,59.37322029487305L200.0887610620117,66.17966099487305L197.8220810620117,70.31965099487304Q195.9292810620117,69.54775099487304,193.3821910620117,65.36102099487304Z" fill="url(#master_svgf_15648_060115)" fill-opacity="1"/></g><g><path d="M196.0928570385742,59.39661072439346C195.53203103857422,59.72406862439346,195.9526490385742,61.525081624393465,197.05094203857422,63.396271624393464C198.1492220385742,65.26746162439346,199.48119203857422,66.53051162439347,200.04202203857423,66.20305162439347C200.6028520385742,65.87559162439346,200.18223203857423,64.07458162439346,199.0839420385742,62.20339162439346C198.00902203857422,60.30881462439346,196.67705303857423,59.06915262439346,196.0928570385742,59.39661072439346Z" fill="url(#master_svgg_15648_060112)" fill-opacity="1"/></g><g><g><path d="M196.5368477203369,60.05145519899038C196.1863307203369,60.26196409899038,196.60695172033692,61.64196209899038,197.49493272033692,63.13891209899038C198.38291272033692,64.63586209899039,199.3643527203369,65.68840209899038,199.69150272033693,65.47789209899038C200.04202272033692,65.26739209899038,199.6214027203369,63.88739209899038,198.7334227203369,62.390442098990384C197.8454427203369,60.89349109899038,196.8873647203369,59.86433709899038,196.5368477203369,60.05145519899038Z" fill="url(#master_svgh_15648_060124)" fill-opacity="1"/></g><g><path d="M196.53684731082325,60.051525746188354C196.88736531082327,59.841017046188355,197.86881131082328,60.89355904618836,198.73342131082327,62.39050804618835C199.41109131082325,63.559998046188355,199.80834131082327,64.63593804618836,199.80834131082327,65.17389804618836C199.64477131082327,64.61254804618835,199.31762131082326,63.84067804618835,198.85026131082327,63.045428046188356C197.98565131082327,61.54847804618836,196.98083531082327,60.49593404618835,196.65368731082327,60.706443046188355C196.58358231082326,60.753222046188355,196.53684731082325,60.846781046188354,196.53684731082325,61.01051004618836C196.39663941082327,60.495933046188355,196.37327011082326,60.145085046188356,196.53684731082325,60.051525746188354Z" fill="#EDC820" fill-opacity="1"/></g><g><path d="M196.65368674041176,60.70644090016861C197.00420374041175,60.49593220016861,197.98564774041176,61.54847420016861,198.85025774041176,63.04542320016861C199.31761774041175,63.84068320016861,199.64476774041177,64.61254320016862,199.80834774041176,65.17390320016861C199.80834774041176,65.31423320016862,199.76160774041176,65.4311832001686,199.69150774041177,65.4779632001686C199.34098774041175,65.68847320016862,198.35953774041175,64.63593320016861,197.49492974041175,63.13898320016861C197.02757374041175,62.34373320016861,196.70042574041176,61.57186520016861,196.53684774041176,61.01050920016861C196.53684774041176,60.84678020016861,196.56021344041176,60.75322070016861,196.65368674041176,60.70644090016861Z" fill="url(#master_svgi_15648_060120)" fill-opacity="1"/></g><g><path d="M196.65368674041176,60.70644090016861C197.00420374041175,60.49593220016861,197.98564774041176,61.54847420016861,198.85025774041176,63.04542320016861C199.31761774041175,63.84068320016861,199.64476774041177,64.61254320016862,199.80834774041176,65.17390320016861C199.80834774041176,65.31423320016862,199.76160774041176,65.4311832001686,199.69150774041177,65.4779632001686C199.34098774041175,65.68847320016862,198.35953774041175,64.63593320016861,197.49492974041175,63.13898320016861C197.02757374041175,62.34373320016861,196.70042574041176,61.57186520016861,196.53684774041176,61.01050920016861C196.53684774041176,60.84678020016861,196.56021344041176,60.75322070016861,196.65368674041176,60.70644090016861Z" fill="#EDC820" fill-opacity="1"/></g></g></g><g><path d="M169.4301449256897,88.44678115844727Q161.7187949256897,91.76814115844726,159.12496392568968,97.59220115844727C156.53113492568968,103.41628115844726,159.84936492568968,105.54478115844726,162.1861449256897,102.94848115844727Q164.6865049256897,104.74948115844727,164.1724149256897,101.59188115844726Q165.4576449256897,98.57458115844727,166.5325649256897,98.73828115844726" fill="#FFFFFF" fill-opacity="1"/></g><g><path d="M169.4301449256897,88.44678115844727Q161.7187949256897,91.76814115844726,159.12496392568968,97.59220115844727C156.53113492568968,103.41628115844726,159.84936492568968,105.54478115844726,162.1861449256897,102.94848115844727Q164.6865049256897,104.74948115844727,164.1724149256897,101.59188115844726Q165.4576449256897,98.57458115844727,166.5325649256897,98.73828115844726" fill="url(#master_svgj_15648_060130)" fill-opacity="1"/></g><g><path d="M152.6520770703125,75.13794366531371C156.6012420703125,57.01084366531372,170.6453220703125,54.71864366531372,177.7257220703125,54.71864366531372C195.2049220703125,54.71864366531372,203.26682207031251,73.47724366531372,200.4392220703125,83.72204366531372C198.2894220703125,91.51084366531373,189.0825220703125,89.92034366531372,184.4323220703125,88.56374366531372Q197.9856220703125,108.79594366531373,176.4872220703125,108.79594366531373Q154.9888520703125,108.79594366531373,169.2432220703125,88.21284366531373C160.8308120703125,90.59864366531372,149.1001720703125,91.41724366531372,152.6520770703125,75.13794366531371Z" fill="#FFFFFF" fill-opacity="1"/></g><g><path d="M169.2899643899536,88.21287908325195Q155.05896438995362,108.79592908325195,176.5339543899536,108.79592908325195Q198.0090543899536,108.79592908325195,184.4790543899536,88.56372908325196L180.0157543899536,84.89152908325195L173.68315438995361,84.89152908325195L169.2899643899536,88.21287908325195Z" fill="url(#master_svgk_15648_060133)" fill-opacity="1"/></g><g><path d="M176.6975483718872,99.93129696411133Q167.3585683718872,99.93129696411133,164.9321820718872,98.52035296411132L164.8147146718872,98.72236096411133Q167.2955683718872,100.16497696411133,176.6975483718872,100.16497696411133Q186.0992483718872,100.16497696411133,188.6033483718872,98.72260096411132L188.48674837188722,98.52011296411133Q186.0368483718872,99.93129696411133,176.6975483718872,99.93129696411133Z" fill-rule="evenodd" fill="#7D8E97" fill-opacity="1"/></g><g><path d="M176.6975483718872,99.79095806640625Q167.3585683718872,99.79095806640625,164.9321820718872,98.38001406640625L164.8147146718872,98.58202206640625Q167.2955683718872,100.02463806640625,176.6975483718872,100.02463806640625Q186.0992483718872,100.02463806640625,188.6033483718872,98.58226206640624L188.48674837188722,98.37977406640626Q186.0368483718872,99.79095806640625,176.6975483718872,99.79095806640625Z" fill-rule="evenodd" fill="#FFFFFF" fill-opacity="1"/></g><g><path d="M169.28996658325195,88.21288579199219Q182.91336658325196,89.61627679199219,188.28796658325194,97.2647467919922Q187.11966658325196,92.32949679199218,184.45566658325194,88.56373379199219Q181.97866658325196,87.83864779199219,176.62746658325196,87.69831049199219Q172.56146658325196,87.60475259199218,169.28996658325195,88.21288579199219Z" fill="url(#master_svgl_15648_060180)" fill-opacity="1"/></g><g><g style="opacity:0.20999999344348907;"><ellipse cx="176.95461320877075" cy="99.90779495239258" rx="5.841955661773682" ry="5.8474578857421875" fill="url(#master_svgm_15648_060194)" fill-opacity="1"/></g><g><ellipse cx="176.95461225509644" cy="100.04813361167908" rx="3.9958980083465576" ry="3.9996609687805176" fill="#0F7CC0" fill-opacity="1"/></g><g><g><path d="M176.95461757476806,104.28169078456878C174.61782757476806,104.28169078456878,172.72503757476807,102.38711078456879,172.72503757476807,100.04813078456878C172.72503757476807,97.70915078456879,174.61782757476806,95.81457078456879,176.95461757476806,95.81457078456879C179.29139757476807,95.81457078456879,181.18418757476806,97.70915078456879,181.18418757476806,100.04813078456878C181.18418757476806,102.3871207845688,179.29139757476807,104.28169078456878,176.95461757476806,104.28169078456878ZM176.95461757476806,96.30576178456879C174.89824757476808,96.30576178456879,173.21576157476807,97.98983078456878,173.21576157476807,100.04813078456878C173.21576157476807,102.10644078456879,174.89824757476808,103.79051078456878,176.95461757476806,103.79051078456878C179.01097757476808,103.79051078456878,180.69346757476808,102.10644078456879,180.69346757476808,100.04813078456878C180.69346757476808,97.98983078456878,179.01097757476808,96.30576178456879,176.95461757476806,96.30576178456879Z" fill="url(#master_svgn_15648_060199)" fill-opacity="1"/></g></g><g><g><path d="M176.95461401817323,103.7905095589447C174.87487401817322,103.7905095589447,173.19239401817322,102.1064395589447,173.19239401817322,100.0247395589447C173.19239401817322,97.94304955894471,174.87487401817322,96.2589795589447,176.95461401817323,96.2589795589447C179.03435401817322,96.2589795589447,180.71683401817322,97.94304955894471,180.71683401817322,100.0247395589447C180.71683401817322,102.1064395589447,179.01098401817322,103.7905095589447,176.95461401817323,103.7905095589447ZM176.95461401817323,96.7267795589447C175.1319240181732,96.7267795589447,173.6363830181732,98.2237295589447,173.6363830181732,100.0481395589447C173.6363830181732,101.87253955894471,175.1319240181732,103.36948955894471,176.95461401817323,103.36948955894471C178.77730401817323,103.36948955894471,180.27284401817323,101.87253955894471,180.27284401817323,100.0481395589447C180.27284401817323,98.2237295589447,178.77730401817323,96.7267795589447,176.95461401817323,96.7267795589447Z" fill="#125597" fill-opacity="1"/></g></g><g><g><g><path d="M175.69275066616868,98.03660824075871C175.80958966616868,97.9898293407587,175.8563246661687,98.03660824075871,175.8563246661687,98.1301664407587L175.7628526661687,98.2938944407587L176.95461466616868,98.2938944407587C177.07145466616868,98.36406444075871,177.07145466616868,98.41084344075871,176.95461466616868,98.4810134407587L176.3003146661687,98.4810134407587L176.3003146661687,98.9955894407587L177.00134466616868,98.9955894407587C177.09482466616868,99.0657564407587,177.09482466616868,99.1125364407587,177.00134466616868,99.18270644075871L176.3704146661687,99.18270644075871C176.6274646661687,99.4399964407587,176.86114466616868,99.6972864407587,177.07145466616868,99.93118644075871C177.07145466616868,100.04813644075871,177.02471466616868,100.0715264407587,176.90787466616868,100.0247364407587C176.6742046661687,99.7908464407587,176.4405246661687,99.55694644075871,176.23021466616868,99.34643644075871C176.0432676661687,99.72067644075871,175.71611966616868,100.0013564407587,175.22539366616869,100.1884764407587C175.1085548661687,100.1884764407587,175.06181996616868,100.14169644075871,175.13192236616868,100.0247464407587C175.69275066616868,99.7674564407587,175.9965306661687,99.4867764407587,176.06663566616868,99.18270644075871L175.20202666616868,99.18270644075871C175.1085548661687,99.1125364407587,175.1085548661687,99.0657564407587,175.20202666616868,98.9955894407587L176.09000466616868,98.9955894407587L176.09000466616868,98.4810134407587L175.6460156661687,98.4810134407587C175.5291766661687,98.66813244075871,175.4123376661687,98.8084694407587,175.31886566616868,98.8552524407587C175.20202666616868,98.87864344075871,175.1552915661687,98.8318614407587,175.1552915661687,98.7383034407587C175.31886566616868,98.64474544075871,175.4824396661687,98.4108464407587,175.69275066616868,98.03660824075871ZM175.9264286661687,100.1884764407587L178.0996346661687,100.1884764407587C178.3333146661687,100.1884764407587,178.4501546661687,100.3054164407587,178.4267846661687,100.5159264407587L178.4267846661687,101.4749164407587C178.4501546661687,101.7088064407587,178.3333146661687,101.82575644075871,178.0996346661687,101.8023664407587L175.9264286661687,101.8023664407587C175.71611766616869,101.82575644075871,175.5992786661687,101.7088064407587,175.5992786661687,101.4749164407587L175.5992786661687,100.5159264407587C175.6226466661687,100.3288164407587,175.71611766616869,100.21186644075871,175.9264286661687,100.1884764407587ZM178.0295346661687,100.37558644075871L175.9731636661687,100.37558644075871C175.8563246661687,100.37558644075871,175.7862206661687,100.4457664407587,175.7862206661687,100.5627064407587L175.7862206661687,100.8901664407587L178.2164746661687,100.8901664407587L178.2164746661687,100.5627064407587C178.2398446661687,100.4457664407587,178.1931046661687,100.37558644075871,178.0295346661687,100.37558644075871ZM178.2398446661687,101.1006764407587L175.80958966616868,101.1006764407587L175.80958966616868,101.4281364407587C175.80958966616868,101.5684764407587,175.8796936661687,101.6386364407587,175.9965326661687,101.6152564407587L178.0529046661687,101.6152564407587C178.1931046661687,101.6386464407587,178.2632146661687,101.5684764407587,178.2398446661687,101.4281364407587L178.2398446661687,101.1006764407587ZM177.5154446661687,98.22372744075871L178.4034146661687,98.22372744075871C178.63709466616868,98.22372744075871,178.7539346661687,98.3406764407587,178.7305646661687,98.5511834407587L178.7305646661687,99.55694644075871C178.7539346661687,99.8142364407587,178.63709466616868,99.93118644075871,178.4034146661687,99.9077964407587L177.5154446661687,99.9077964407587C177.3051246661687,99.93118644075871,177.1882946661687,99.8142364407587,177.1882946661687,99.5803364407587L177.1882946661687,98.55118744075871C177.2350246661687,98.3406764407587,177.3284946661687,98.22372744075871,177.5154446661687,98.22372744075871ZM178.3566846661687,98.4342344407587L177.5855446661687,98.4342344407587C177.4687046661687,98.4342344407587,177.3986046661687,98.5044044407587,177.3986046661687,98.62135344075871L177.3986046661687,99.51016644075871C177.3986046661687,99.6505064407587,177.4687046661687,99.72067644075871,177.5855446661687,99.6972864407587L178.3566846661687,99.6972864407587C178.49688466616868,99.72067644075871,178.56699466616868,99.6505064407587,178.54362466616868,99.51016644075871L178.54362466616868,98.62135344075871C178.56699466616868,98.4810174407587,178.49688466616868,98.4342344407587,178.3566846661687,98.4342344407587Z" fill="#C0E5F7" fill-opacity="1"/></g><g><path d="M175.85632487854005,101.89593158500671C175.76285287854003,101.89593158500671,175.66938087854004,101.87254158500672,175.62264587854003,101.80237158500671C175.55254187854004,101.73220158500672,175.50580687854003,101.61525158500672,175.50580687854003,101.47491158500671L175.50580687854003,100.51593158500671C175.52917487854003,100.25864158500671,175.66938087854004,100.11830158500672,175.90305987854003,100.09491158500671L176.81440487854005,100.09491158500671L176.23020487854004,99.51017158500672C176.01989487854004,99.86101158500671,175.69274887854004,100.11830158500672,175.24876187854005,100.28203158500672L175.22539387854005,100.28203158500672C175.13192187854003,100.28203158500672,175.06181987854004,100.25864158500671,175.01508317854004,100.18847158500671C174.99171573854005,100.11830158500672,174.99171573854005,100.04813158500671,175.03845067854004,99.97797158500671L175.06181817854005,99.95458158500671L175.08518557854003,99.93118158500671C175.52917487854003,99.72068158500672,175.80958787854004,99.51017158500672,175.92642687854004,99.27627158500671L175.15528787854004,99.27627158500671L175.13192087854003,99.25288158500672C175.06181637854004,99.20610158500672,175.03844887854004,99.13593158500672,175.03844887854004,99.08915158500672C175.03844887854004,99.01898158500671,175.06181637854004,98.97220158500672,175.13192087854003,98.92542258500671C175.08518557854003,98.87864358500671,175.06181637854004,98.83186458500671,175.06181637854004,98.73830358500672L175.06181637854004,98.69152458500672L175.10855087854003,98.66813258500672C175.22539087854003,98.57457458500672,175.38896487854004,98.34067658500672,175.59927487854003,97.98982928500672L175.62264287854003,97.96643808500671L175.64600987854004,97.94304678500671C175.73948187854003,97.91965555500671,175.80958387854005,97.91965555500671,175.85632087854003,97.94304678500671C175.90305587854004,97.98982578500672,175.92642487854005,98.03660458500671,175.92642487854005,98.13016658500672L175.92642487854005,98.15355758500671L175.90305787854004,98.20033658500671L176.95460487854004,98.20033658500671L176.97797487854004,98.22372758500671C177.07144487854004,98.27050658500671,177.09481487854003,98.34067658500672,177.09481487854003,98.41084658500671C177.09481487854003,98.48101758500671,177.04808487854004,98.55118758500672,176.97797487854004,98.59796658500672L176.95460487854004,98.62135758500672L176.39378487854003,98.62135758500672L176.39378487854003,98.94881158500671L177.02471487854004,98.94881158500671L177.04807487854004,98.97220158500672C177.07144487854004,98.97220158500672,177.07144487854004,98.99559158500671,177.09481487854003,98.99559158500671L177.09481487854003,98.59796958500671C177.11818487854003,98.31729258500671,177.25838487854003,98.17695258500672,177.51543487854005,98.17695258500672L178.40341487854005,98.17695258500672C178.54362487854004,98.17695258500672,178.66046487854004,98.22373158500672,178.73056487854004,98.29390158500671C178.80066487854003,98.36407158500671,178.82403487854003,98.48102058500672,178.82403487854003,98.59796958500671L178.82403487854003,99.58034158500672C178.84740487854003,99.74407158500671,178.80066487854003,99.86102158500671,178.73056487854004,99.93119158500672C178.66046487854004,100.00136158500672,178.54362487854004,100.02475158500671,178.40341487854005,100.02475158500671L177.51543487854005,100.02475158500671C177.39859487854005,100.04814158500672,177.28175487854003,100.00135158500672,177.21165487854003,99.93119158500672C177.14154487854003,99.86102158500671,177.09481487854003,99.74407158500671,177.09481487854003,99.60373158500671L177.09481487854003,99.27628158500671Q177.07144487854004,99.29967158500672,177.04807487854004,99.29967158500672L177.02471487854004,99.32306158500671L176.58072487854002,99.32306158500671C176.76766487854005,99.51018158500672,176.95460487854004,99.72068158500672,177.11818487854003,99.90780158500671L177.14155487854003,99.93119158500672L177.14155487854003,99.97797158500671C177.14155487854003,100.04814158500672,177.11818487854003,100.09492158500672,177.09481487854003,100.14170158500671L178.07626487854003,100.14170158500671C178.21647487854003,100.14170158500671,178.33331487854005,100.18848158500671,178.40341487854005,100.25865158500672C178.47351487854004,100.32882158500671,178.49688487854004,100.44577158500671,178.49688487854004,100.56272158500671L178.49688487854004,101.52170158500671C178.52025487854004,101.66204158500672,178.47351487854004,101.77899158500671,178.40341487854005,101.84916158500671C178.33331487854005,101.91933158500672,178.21647487854003,101.94272158500671,178.07626487854003,101.94272158500671L175.90305587854004,101.94272158500671C175.90306087854003,101.89593158500671,175.87969187854003,101.89593158500671,175.85632487854005,101.89593158500671ZM175.69275087854004,101.47491158500671C175.69275087854004,101.54508158500671,175.69275087854004,101.63864158500671,175.73948587854005,101.68542158500671C175.76285287854003,101.70881158500671,175.80958987854004,101.73220158500672,175.87969187854003,101.70881158500671C175.83295687854005,101.70881158500671,175.80958787854004,101.68542158500671,175.78621987854004,101.66203158500672C175.73948587854005,101.61525158500672,175.71611787854005,101.54508158500671,175.69275087854004,101.47491158500671ZM178.14637487854003,101.70881158500671C178.19310487854003,101.70881158500671,178.26321487854003,101.70881158500671,178.28657487854005,101.66203158500672C178.30994487854005,101.63864158500671,178.33331487854005,101.56847158500672,178.33331487854005,101.52169158500672C178.33331487854005,101.56847158500672,178.30994487854005,101.61525158500672,178.26320487854005,101.63864158500671C178.23984487854003,101.68542158500671,178.19310487854003,101.68542158500671,178.14637487854003,101.70881158500671ZM175.87969187854003,101.19423158500672L175.87969187854003,101.42813158500671C175.87969187854003,101.47491158500671,175.87969187854003,101.52169158500672,175.90305987854003,101.52169158500672Q175.92642687854004,101.52169158500672,175.94979487854005,101.52169158500672L178.02953487854003,101.52169158500672Q178.09963487854003,101.52169158500672,178.12300487854003,101.52169158500672Q178.14637487854003,101.49830158500671,178.12300487854003,101.45152158500672L178.12300487854003,101.21762158500671L175.87969187854003,101.21762158500671L175.87969187854003,101.19423158500672ZM175.87969187854003,100.79661158500672L178.12300487854003,100.79661158500672L178.12300487854003,100.56271158500671Q178.12300487854003,100.51593158500671,178.12300487854003,100.49254158500672Q178.07626487854003,100.46915158500671,178.02953487854003,100.46915158500671L175.97316187854003,100.46915158500671C175.90305787854004,100.46915158500671,175.87968987854003,100.49254158500672,175.87968987854003,100.56271158500671L175.87969187854003,100.79661158500672ZM175.92642887854004,100.28203158500672C175.78622187854003,100.30542158500671,175.71611787854005,100.37559158500672,175.69275087854004,100.51593158500671C175.71611787854005,100.39898158500671,175.78622187854003,100.30542158500671,175.92642887854004,100.28203158500672ZM178.09963487854003,100.28203158500672C178.16973487854003,100.28203158500672,178.23984487854003,100.32881158500672,178.28657487854005,100.37559158500672C178.30994487854005,100.39898158500671,178.33331487854005,100.44576158500671,178.33331487854005,100.46915158500671C178.33331487854005,100.39898158500671,178.33331487854005,100.35220158500671,178.30994487854005,100.32881158500672C178.23984487854003,100.30542158500671,178.16973487854003,100.28203158500672,178.09963487854003,100.28203158500672ZM175.90306087854003,99.67389158500671C175.76285487854003,99.81423158500671,175.57591087854004,99.93118158500671,175.31886587854004,100.0715215850067C175.55254387854004,99.95457158500672,175.73948587854005,99.83762158500672,175.90306087854003,99.67389158500671ZM177.30513487854003,99.58034158500672C177.30513487854003,99.65051158500671,177.30513487854003,99.74407158500671,177.35186487854003,99.79084158500672C177.37523487854003,99.81423158500671,177.42196487854005,99.83762158500672,177.49207487854005,99.81423158500671C177.44533487854005,99.81423158500671,177.42196487854005,99.79084158500672,177.39860487854003,99.76746158500671C177.32849487854003,99.72067158500671,177.30513487854003,99.65051158500671,177.30513487854003,99.58034158500672ZM178.47352487854005,99.81423158500671C178.54362487854004,99.81423158500671,178.59036487854004,99.79084158500672,178.61372487854004,99.76746158500671C178.63709487854004,99.74407158500671,178.66046487854004,99.67390158500672,178.66046487854004,99.62712158500672C178.66046487854004,99.67389158500671,178.63709487854004,99.72067158500671,178.59035487854004,99.74407158500671C178.54362487854004,99.79084158500672,178.52025487854004,99.79084158500672,178.47352487854005,99.81423158500671ZM176.20684487854004,99.18271158500671L176.74430487854005,99.72068158500672C176.60409487854005,99.58034158500672,176.44052487854003,99.41661158500672,176.30031487854004,99.25288158500672L176.18347487854004,99.13593158500672L176.16010487854004,99.20610158500672C176.16010487854004,99.25288158500672,176.13673487854004,99.29966158500672,176.11337487854004,99.34644158500672C176.11337487854004,99.32305158500671,176.13673487854004,99.32305158500671,176.13673487854004,99.29966158500672L176.20684487854004,99.18271158500671ZM177.58554487854005,98.52779658500671C177.51543487854005,98.52779658500671,177.49207487854005,98.55118758500672,177.49207487854005,98.62135358500672L177.49207487854005,99.51017158500672C177.49207487854005,99.55695158500671,177.49207487854005,99.60372158500671,177.51543487854005,99.60372158500671Q177.53880487854005,99.60372158500671,177.56217487854005,99.60372158500671L178.35668487854005,99.60372158500671Q178.42678487854005,99.60372158500671,178.45015487854005,99.60372158500671Q178.47352487854005,99.58033158500672,178.45015487854005,99.53355158500672L178.45015487854005,98.62135358500672Q178.45015487854005,98.57457458500672,178.45015487854005,98.55118358500671Q178.40341487854005,98.52779258500671,178.35668487854005,98.52779258500671L177.58554487854005,98.52779658500671ZM175.45907187854004,98.90203158500671L176.01990487854005,98.90203158500671L176.01990487854005,98.57457458500672L175.71611787854005,98.57457458500672C175.62264587854003,98.73830358500672,175.52917487854003,98.83186458500671,175.45907187854004,98.90203158500671ZM175.59927887854005,98.38745558500672C175.48243987854005,98.57457458500672,175.38896787854003,98.69152458500672,175.29549687854004,98.78508258500672Q175.29549687854004,98.78508258500672,175.31886387854004,98.78508258500672C175.36559887854003,98.73830358500672,175.45907087854005,98.64474158500671,175.59927687854005,98.43423458500672L175.59927887854005,98.38745558500672ZM177.51543487854005,98.34067658500672C177.42196487854005,98.34067658500672,177.30512487854003,98.36406758500671,177.28176487854003,98.57457458500672C177.30513487854003,98.43423458500672,177.39860487854003,98.34067658500672,177.51543487854005,98.34067658500672ZM178.40341487854005,98.34067658500672C178.47352487854005,98.34067658500672,178.54362487854004,98.38745558500672,178.59036487854004,98.43423458500672C178.61372487854004,98.45762558500671,178.63709487854004,98.50440458500671,178.63709487854004,98.52779258500671C178.63709487854004,98.45762258500672,178.63709487854004,98.41084358500672,178.61372487854004,98.38745258500671C178.56699487854004,98.34067658500672,178.49688487854004,98.34067658500672,178.40341487854005,98.34067658500672Z" fill="#C0E5F7" fill-opacity="1"/></g></g></g></g><g><g><path d="M184.43233017654418,88.56374366531372Q197.8922301765442,93.14814366531371,200.43923017654419,83.72204366531372C203.29013017654418,73.22004366531372,195.2049301765442,54.71864366531372,177.72573017654418,54.71864366531372C170.64533017654418,54.71864366531372,156.6012501765442,57.01084366531372,152.65208317654418,75.11454366531372C149.1001701765442,91.39394366531371,160.8308201765442,90.59864366531372,169.2432301765442,88.18944366531372Q172.2577301765442,87.69834366531373,176.8378301765442,87.69834366531373Q181.3477301765442,87.72174366531372,184.43233017654418,88.56374366531372Z" fill="url(#master_svgo_15648_060164)" fill-opacity="1"/></g><g><path d="M179.38486756713868,56.94068343643188L179.15118756713866,55.209833436431886L175.73948556713867,53.993563436431884L176.48725756713867,51.958643436431885L175.59927856713867,51.958643436431885L174.75803756713867,54.437963436431886L177.42196756713867,55.560673436431884L176.88450756713868,56.91728343643189Q177.37523756713867,57.40847343643188,178.16973756713867,57.40847343643188Q179.03434756713867,57.40847343643188,179.38486756713868,56.94068343643188Z" fill="#1950A1" fill-opacity="1"/></g><g><ellipse cx="176.090003490448" cy="49.47932243347168" rx="2.476989269256592" ry="2.4793224334716797" fill="#EDC820" fill-opacity="1"/></g><g transform="matrix(-1,1.2246468525851679e-16,-1.2246468525851679e-16,-1,321.05406761169434,155.28135681152344)"><line x1="160.52703380584717" y1="77.52383909374475" x2="168.86934661865234" y2="77.52383909374475" fill-opacity="0" stroke-opacity="1" stroke="#7D8E97" fill="none" stroke-width="0.23367862403392792"/></g><g><path d="M179.43158346099852,85.14878456573487C189.57328346099854,85.14878456573487,198.56988346099854,89.80338456573486,198.56988346099854,80.04978456573487C198.56988346099854,68.00406456573486,189.03578346099854,61.75898456573486,179.57178346099855,61.75898456573486L179.19788346099853,61.75898456573486C169.73395346099852,61.75898456573486,160.19988346099854,67.98068456573486,160.19988346099854,80.04978456573487C160.19988346099854,89.82678456573487,169.19649346099854,85.14878456573487,179.33808346099855,85.14878456573487L179.43158346099852,85.14878456573487Z" fill="url(#master_svgp_15648_060141)" fill-opacity="1"/></g><g><g><ellipse cx="189.59660732746124" cy="74.57660979032516" rx="1.939529538154602" ry="4.3037285804748535" fill="#C0E5F7" fill-opacity="1"/></g><g><path d="M175.66938465637207,74.76372284606934L176.48725465637207,73.94508284606934C176.62746465637207,73.80474284606933,176.62746465637207,73.59423284606933,176.48725465637207,73.45389284606934L172.60819465637206,69.57118684606934C172.46799465637207,69.43084774606933,172.25767465637207,69.43084774606933,172.11747265637206,69.57118684606934L171.29959865637207,70.38983084606933C171.15939255637207,70.53017284606933,171.15939255637207,70.74067284606933,171.29959865637207,70.88101284606934L175.17865465637206,74.76372284606934C175.31886465637206,74.90407284606934,175.55254465637208,74.90407284606934,175.66938465637207,74.76372284606934Z" fill="#C0E5F7" fill-opacity="1"/></g><g><path d="M176.51062390532852,73.5006780344696L175.69275390532852,72.6820350344696C175.55254390532852,72.5416959344696,175.3422339053285,72.5416959344696,175.2020239053285,72.6820350344696L171.3229679053285,76.5647410344696C171.1827618053285,76.7050810344696,171.1827618053285,76.9155910344696,171.3229679053285,77.05593103446961L172.1408419053285,77.87457103446961C172.28104390532852,78.01492103446961,172.4913639053285,78.01492103446961,172.6315639053285,77.87457103446961L176.51062390532852,73.99186103446961C176.6274639053285,73.8515210344696,176.6274639053285,73.61763103446961,176.51062390532852,73.5006780344696Z" fill="#C0E5F7" fill-opacity="1"/></g><g><path d="M177.21165943145752,79.20779514312744C177.21165943145752,81.03220514312744,178.68382943145753,82.50576514312745,180.50651943145752,82.50576514312745C182.3292094314575,82.50576514312745,183.80138943145752,81.03220514312744,183.80138943145752,79.20779514312744L177.21165943145752,79.20779514312744Z" fill="#C0E5F7" fill-opacity="1"/></g></g><g><g><path d="M160.7139747701764,64.26169222879172Q163.63495477017642,61.15085222879171,163.7985247701764,58.69491622879171L159.1483347701764,57.852882228791714L153.9606747701764,63.793902228791715L155.38611477017642,68.28478222879171Q157.4191147701764,67.79356222879171,160.7139747701764,64.26169222879172Z" fill="url(#master_svgq_15648_060152)" fill-opacity="1"/></g><g><path d="M160.7139747701764,64.26169222879172Q163.8452647701764,60.84678222879171,163.7985247701764,58.69491622879171L159.1483347701764,57.852882228791714L153.9606747701764,63.793902228791715L155.38611477017642,68.28478222879171Q157.3957447701764,67.88708222879171,160.7139747701764,64.26169222879172Z" fill="url(#master_svgr_15648_060146)" fill-opacity="1"/></g><g><path d="M159.17170153198242,57.899661424072264C159.66242153198243,58.32067842407226,158.89128153198243,60.00474842407227,157.46585153198242,61.64203842407227C156.04041153198241,63.279318424072265,154.47476653198243,64.23830842407227,153.98404253198242,63.81728842407227C153.49331853198242,63.39626842407227,154.26445653198243,61.712208424072266,155.68989153198243,60.074918424072266C157.11533153198243,58.437628424072265,158.68097153198244,57.455254424072265,159.17170153198242,57.899661424072264Z" fill="url(#master_svgs_15648_060149)" fill-opacity="1"/></g><g><g><path d="M158.63424203265072,58.461004627290194C158.9380220326507,58.71829262729019,158.2603520326507,60.00473662729019,157.1153320326507,61.29117662729019C155.9703120326507,62.57761662729019,154.80191603265072,63.44303662729019,154.4981347326507,63.18574662729019C154.1943530326507,62.92846662729019,154.8720200326507,61.64202662729019,156.01704203265072,60.35557662729019C157.1620720326507,59.06913962729019,158.3304620326507,58.20371662729019,158.63424203265072,58.461004627290194Z" fill="url(#master_svgt_15648_060160)" fill-opacity="1"/></g><g><path d="M158.6342414091593,58.46101748655014C158.3304614091593,58.20373018655014,157.1620614091593,59.04576318655014,156.0170414091593,60.35559818655014C155.1290664091593,61.36135818655014,154.5215028091593,62.367118186550144,154.4280314091593,62.88169818655014C154.6850774091593,62.34372818655014,155.1758014091593,61.66542818655014,155.7833614091593,60.96372818655014C156.9283914091593,59.65389818655014,158.0967814091593,58.81186518655014,158.4005614091593,59.06915318655014C158.4706614091593,59.13932218655014,158.4940314091593,59.23288218655014,158.4473014091593,59.39661118655014C158.6809714091593,58.92881418655014,158.7744414091593,58.57796718655014,158.6342414091593,58.46101748655014Z" fill="#EDC820" fill-opacity="1"/></g><g><path d="M158.4005641309738,59.06915276954346C158.09678413097382,58.811865469543456,156.92838413097382,59.653898469543456,155.7833641309738,60.963733469543456C155.1758021309738,61.665423469543455,154.70844513097381,62.34373346954346,154.42803141097383,62.88169346954346C154.4046635309738,63.02203346954346,154.42803141097383,63.138983469543454,154.47476703097382,63.20915346954346C154.77854913097383,63.46644346954346,155.9469441309738,62.62440346954346,157.09196413097382,61.314573469543454C157.69952413097383,60.612883469543455,158.1668841309738,59.934575469543454,158.44729413097383,59.396609469543456C158.47066413097383,59.256272469543454,158.47066413097383,59.139323469543456,158.4005641309738,59.06915276954346Z" fill="url(#master_svgu_15648_060156)" fill-opacity="1"/></g><g><path d="M158.4005641309738,59.06915276954346C158.09678413097382,58.811865469543456,156.92838413097382,59.653898469543456,155.7833641309738,60.963733469543456C155.1758021309738,61.665423469543455,154.70844513097381,62.34373346954346,154.42803141097383,62.88169346954346C154.4046635309738,63.02203346954346,154.42803141097383,63.138983469543454,154.47476703097382,63.20915346954346C154.77854913097383,63.46644346954346,155.9469441309738,62.62440346954346,157.09196413097382,61.314573469543454C157.69952413097383,60.612883469543455,158.1668841309738,59.934575469543454,158.44729413097383,59.396609469543456C158.47066413097383,59.256272469543454,158.47066413097383,59.139323469543456,158.4005641309738,59.06915276954346Z" fill="#EDC820" fill-opacity="1"/></g></g></g></g></g></g><g transform="matrix(1,0.011439912021160126,-0.011439912021160126,1,0.6337420793206547,-0.7047052835769136)"><g transform="matrix(0.9876644611358643,-0.1565849781036377,0.16254229843616486,0.9867015480995178,-9.365039749029734,10.474099765101982)"><g><path d="M90.28349272644043,94.44010657104492L99.58347272644043,103.58581657104492C100.95357272644043,104.93301657104493,103.21437272644043,104.93301657104493,104.58457272644043,103.58581657104492C105.97177272644043,102.23841657104492,105.97177272644043,100.01501657104492,104.58457272644043,98.66761657104492L95.28457272644043,89.52223657104493C94.59949272644043,88.84836857104492,93.69176272644043,88.51151657104492,92.78403272644043,88.51151657104492C91.87630272644043,88.51151657104492,90.96857272644043,88.84836857104492,90.28349272644043,89.52223657104493C88.91333272644043,90.86964657104492,88.91333272644043,93.09286657104492,90.28349272644043,94.44010657104492Z" fill-rule="evenodd" fill="url(#master_svgv_917_063116)" fill-opacity="1"/></g><g><path d="M79.39618593750001,98.22651055488586C69.5652959375,98.22651055488586,61.6010743635,90.39471055488586,61.6010743115,80.72701055488587C61.6010742605,71.05938055488586,69.5652959375,63.227410554885864,79.39618593750001,63.227410554885864C89.2099859375,63.227410554885864,97.1737859375,71.05938055488586,97.19108593749999,80.72701055488587C97.19108593749999,90.39471055488586,89.2270859375,98.22651055488586,79.39618593750001,98.22651055488586ZM79.3960859375,93.79691055488587C72.0483859375,93.79691055488587,66.0883759375,87.93571055488587,66.0883759375,80.71021055488586C66.0883759375,73.48471055488587,72.0483859375,67.62353055488586,79.3960859375,67.62353055488586C86.7434859375,67.62353055488586,92.7036859375,73.48471055488587,92.7036859375,80.71021055488586C92.7036859375,87.95251055488586,86.7434859375,93.79691055488587,79.3960859375,93.79691055488587Z" fill-rule="evenodd" fill="#757575" fill-opacity="0.20000000298023224"/></g><g><path d="M98.14415624380112,79.79046221923828C98.14415624380112,89.45816221923829,90.18015624380112,97.28996221923828,80.34925624380112,97.28996221923828C70.51837624380111,97.28996221923828,62.55415624380112,89.45816221923829,62.55415624380112,79.79046221923828C62.55415624380112,70.12281221923828,70.51837624380111,62.29084011723828,80.34925624380112,62.29084007923828C90.16305624380112,62.29084004123828,98.12685624380111,70.12281221923828,98.14415624380112,79.79046221923828ZM80.19625624380112,91.32086221923828C73.61455624380112,91.32086221923828,68.27583624380112,86.07816221923828,68.27583624380112,79.61526221923828C68.27583624380112,73.15226221923828,73.61455624380112,67.90961221923828,80.19625624380112,67.90961221923828C86.77775624380112,67.90961221923828,92.11655624380111,73.15226221923828,92.11655624380111,79.61526221923828C92.11655624380111,86.09326221923828,86.77775624380112,91.32086221923828,80.19625624380112,91.32086221923828Z" fill-rule="evenodd" fill="url(#master_svgw_15648_057850)" fill-opacity="1"/></g></g></g><g transform="matrix(0.9732255339622498,0.22985227406024933,-0.22985227406024933,0.9732255339622498,23.77227000619655,-22.079125191070204)"><ellipse cx="109.9669828414917" cy="94.6065993309021" rx="3.308905601501465" ry="3.6065993309020996" fill="#FFFFFF" fill-opacity="1"/><ellipse cx="109.9669828414917" cy="94.6065993309021" rx="3.308905601501465" ry="3.6065993309020996" fill="url(#master_svgx_15648_060220)" fill-opacity="1"/></g></g></g></svg>