<svg xmlns="http://www.w3.org/2000/svg" xmlns:xlink="http://www.w3.org/1999/xlink" fill="none" version="1.1" width="126" height="126" viewBox="0 0 126 126"><defs><filter id="master_svg0_1_308" filterUnits="objectBoundingBox" color-interpolation-filters="sRGB" x="0" y="0" width="126" height="126"><feFlood flood-opacity="0" result="BackgroundImageFix"/><feBlend mode="normal" in="SourceGraphic" in2="BackgroundImageFix" result="shape"/><feGaussianBlur in="BackgroundImage" stdDeviation="5"/><feComposite in2="SourceAlpha" operator="in" result="effect1_foregroundBlur"/><feBlend mode="normal" in="SourceGraphic" in2="effect1_foregroundBlur" result="shape"/></filter><clipPath id="master_svg1_1_3455"><rect x="30" y="31" width="66.06451416015625" height="64" rx="0"/></clipPath></defs><g><g><g><g filter="url(#master_svg0_1_308)"><rect x="0" y="0" width="126" height="126" rx="63" fill="#1890ff" fill-opacity="0.800000011920929"/><rect x="0" y="0" width="126" height="126" rx="63" fill="#130909" fill-opacity="0.20000000298023224"/></g></g></g><g clip-path="url(#master_svg1_1_3455)"><g><path d="M85.01231416015625,32.351586396875C85.23891416015624,32.383450296875,85.43101416015625,32.424442296875,85.58871416015626,32.469743296875C86.37331416015624,32.695186296875,87.01381416015624,33.247136296875,87.33621416015626,33.975829296875C88.71141416015625,37.084479296875,89.03951416015624,40.513019296875,88.30811416015625,43.781129296875C88.30811416015625,43.781129296875,88.13661416015626,44.461529296875,88.13661416015626,44.461529296875C88.13661416015626,44.461529296875,88.57651416015625,45.023829296875,88.57651416015625,45.023829296875C90.59261416015624,47.726329296875,91.76001416015626,50.950329296875,91.91721416015625,54.303729296875005C91.91721416015625,54.303729296875005,91.93531416015625,55.079629296875,91.93531416015625,55.079629296875C91.93531416015625,67.146129296875,86.52111416015626,73.217929296875,76.76311416015625,75.554129296875C76.76311416015625,75.554129296875,75.98081416015626,75.728329296875,75.98081416015626,75.728329296875C75.98081416015626,75.728329296875,76.11261416015626,76.05282929687499,76.11261416015626,76.05282929687499C76.60841416015626,77.38672929687499,76.84811416015626,78.794929296875,76.82781416015625,80.07682929687499C76.82781416015625,80.07682929687499,76.79561416015625,80.706429296875,76.79561416015625,80.706429296875C76.79561416015625,80.706429296875,76.79561416015625,91.026429296875,76.79561416015625,91.026429296875C76.79561416015625,92.499229296875,75.56321416015625,93.693129296875,74.04291416015624,93.693129296875C72.63131416015625,93.693129296875,71.46771416015625,92.663729296875,71.30891416015625,91.337329296875C71.30891416015625,91.337329296875,71.29021416015625,91.026429296875,71.29021416015625,91.026429296875C71.29021416015625,91.026429296875,71.29871416015625,80.497329296875,71.29871416015625,80.497329296875C71.37141416015625,79.602929296875,71.24671416015624,78.704029296875,70.93291416015626,77.860029296875C70.68181416015625,77.184829296875,70.31461416015625,76.557329296875,69.84751416015625,76.00372929687501C69.84751416015625,76.00372929687501,69.47891416015625,75.602429296875,69.47891416015625,75.602429296875C67.88651416015625,74.011229296875,68.87661416015625,71.341629296875,71.15061416015625,71.096329296875C81.52501416015625,69.976029296875,86.43001416015625,65.980329296875,86.43001416015625,55.080229296875004C86.42941416015626,52.041329296875,85.22291416015625,49.119129296875,83.06011416015625,46.918329296875C82.33371416015625,46.179229296875,82.10631416015624,45.103329296875,82.47491416015626,44.147229296875C83.24981416015625,42.135949296875,83.38631416015625,39.961579296875,82.89171416015625,37.897419296875C82.89171416015625,37.897419296875,82.85421416015626,37.765549296875,82.85421416015626,37.765549296875C82.85421416015626,37.765549296875,82.59461416015625,37.828079296875,82.59461416015625,37.828079296875C82.59461416015625,37.828079296875,82.22301416015625,37.925839296875,82.22301416015625,37.925839296875C80.44921416015626,38.420479296875,78.23851416015626,39.458779296875,75.57561416015625,41.188029296875C74.91381416015625,41.617869296875,74.09211416015626,41.748749296875,73.32301416015625,41.546799296875C67.48541416015625,40.014139296875,61.33181416015625,40.014139296875,55.49421416015625,41.546799296875C54.72511416015625,41.748749296875,53.903414160156245,41.617869296875,53.24141416015625,41.188029296875C50.82061416015625,39.615979296875,48.77361416015625,38.614989296875,47.08881416015625,38.074319296875004C47.08881416015625,38.074319296875004,46.40381416015625,37.874239296875004,46.40381416015625,37.874239296875004C46.40381416015625,37.874239296875004,45.96011416015625,37.765549296875,45.96011416015625,37.765549296875C45.96011416015625,37.765549296875,45.92561416015625,37.897359296875,45.92561416015625,37.897359296875C45.480314160156254,39.755069296875,45.54651416015625,41.702079296875,46.12901416015625,43.539229296875C46.12901416015625,43.539229296875,46.34241416015625,44.147229296875,46.34241416015625,44.147229296875C46.71071416015625,45.103429296875,46.48341416015625,46.179329296875,45.75701416015625,46.918429296875004C43.57811416015625,49.135529296875,42.37018416015625,52.084229296875,42.38686416015625,55.159629296874996C42.38686416015625,65.957629296875,47.25521416015625,69.92322929687501,57.70101416015625,71.180029296875C59.84731416015625,71.438429296875,60.824214160156245,73.853329296875,59.54801416015625,75.448329296875C59.54801416015625,75.448329296875,59.339614160156245,75.681129296875,59.339614160156245,75.681129296875C58.702914160156254,76.318129296875,58.21171416015625,77.078729296875,57.898114160156254,77.912329296875C57.64731416015625,78.579229296875,57.514714160156245,79.28112929687501,57.50811416015625,80.084029296875C57.50811416015625,80.084029296875,57.52691416015625,80.706429296875,57.52691416015625,80.706429296875C57.52691416015625,80.706429296875,57.52691416015625,91.026429296875,57.52691416015625,91.026429296875C57.52691416015625,92.499229296875,56.29441416015625,93.693129296875,54.77421416015625,93.693129296875C53.36251416015625,93.693129296875,52.19901416015625,92.663729296875,52.04001416015625,91.337329296875C52.04001416015625,91.337329296875,52.02151416015625,91.026429296875,52.02151416015625,91.026429296875C52.02151416015625,91.026429296875,52.02161416015625,86.390929296875,52.02161416015625,86.390929296875C46.16301416015625,87.31652929687499,42.35848416015625,85.575729296875,38.85830416015625,81.590429296875C38.85830416015625,81.590429296875,38.11202416015625,80.70352929687499,38.11202416015625,80.70352929687499C38.11202416015625,80.70352929687499,37.18560416015625,79.572829296875,37.18560416015625,79.572829296875C36.21693416015625,78.413129296875,35.60377416015625,77.878129296875,35.02851416015625,77.670929296875C35.02851416015625,77.670929296875,34.83772416015625,77.61332929687501,34.83772416015625,77.61332929687501C33.36285216015625,77.25632929687501,32.46613416015625,75.80852929687501,32.83485386015625,74.379729296875C33.20357316015625,72.950929296875,34.69810416015625,72.082129296875,36.17297416015625,72.43952929687501C38.10329416015625,72.906929296875,39.45423416015625,73.911529296875,41.02945416015625,75.708029296875C41.02945416015625,75.708029296875,41.59296416015625,76.372029296875,41.59296416015625,76.372029296875C41.59296416015625,76.372029296875,42.70524416015625,77.729629296875,42.70524416015625,77.729629296875C45.31791416015625,80.863529296875,47.48811416015625,81.941929296875,52.02821416015625,80.97152929687499C52.02821416015625,80.97152929687499,52.02821416015625,80.89332929687501,52.02821416015625,80.89332929687501C51.92671416015625,79.494429296875,52.08671416015625,78.091529296875,52.49851416015625,76.75122929687501C52.49851416015625,76.75122929687501,52.72541416015625,76.086729296875,52.72541416015625,76.086729296875C52.72541416015625,76.086729296875,52.85281416015625,75.77092929687501,52.85281416015625,75.77092929687501C52.85281416015625,75.77092929687501,52.69911416015625,75.738429296875,52.69911416015625,75.738429296875C42.723214160156246,73.47552929687501,37.13330416015625,67.676029296875,36.88982416015625,55.980329296875C36.88982416015625,55.980329296875,36.88151416015625,55.173729296874995,36.88151416015625,55.173729296874995C36.86166416015625,51.517029296874995,38.04631416015625,47.971229296875,40.23021416015625,45.037529296875C40.23021416015625,45.037529296875,40.67766416015625,44.458929296875,40.67766416015625,44.458929296875C40.67766416015625,44.458929296875,40.50892416015625,43.781029296875,40.50892416015625,43.781029296875C39.83399416015625,40.764239296875,40.06155416015625,37.610859296875,41.18228416015625,34.698619296875C41.18228416015625,34.698619296875,41.48106416015625,33.975799296875,41.48106416015625,33.975799296875C41.80345416015625,33.247120296875,42.44381416015625,32.695184296875,43.22841416015625,32.469743296875C43.38601416015625,32.424442296875,43.57831416015625,32.383450296875,43.80491416015625,32.351586396875C46.31451416015625,31.998685296875,49.95841416015625,32.919184296875,54.813814160156255,35.825679296875C54.813814160156255,35.825679296875,55.264114160156254,36.098879296875,55.264114160156254,36.098879296875C55.264114160156254,36.098879296875,56.46131416015625,35.844749296875,56.46131416015625,35.844749296875C61.704814160156246,34.803689296875,67.11241416015625,34.803689296875,72.35571416015625,35.844749296875C72.35571416015625,35.844749296875,73.55011416015626,36.098879296875,73.55011416015626,36.098879296875C73.55011416015626,36.098879296875,74.00321416015625,35.825679296875,74.00321416015625,35.825679296875C78.85871416015624,32.919184296875,82.50271416015624,31.998685296875,85.01231416015625,32.351586396875C85.01231416015625,32.351586396875,85.01231416015625,32.351586396875,85.01231416015625,32.351586396875Z" fill="#FFFFFF" fill-opacity="1"/></g></g></g></svg>